<svg id="Layer_1" data-name="Layer 1" xmlns="http://www.w3.org/2000/svg" viewBox="0 0 558.86 165.63"><defs><style>.cls-1{fill:#7d797a;}.cls-2{fill:#040404;}.cls-3{fill:#f9cd0c;}</style></defs><title>logo</title><path d="M111.07,67.93c.11.49.27,1,.38,1.61C113,77.15,121.92,78.8,127,75.42a7.09,7.09,0,0,0,2.11-2.31c1.21-2.13.9-4-1.2-5.23a39.43,39.43,0,0,0-6.64-2.94c-2.07-.76-4.24-1.26-6.51-1.91l1.09-1.5c-.27,0-.46-.13-.56-.07-2.09,1.34-3.92.32-5.78-.6a29.25,29.25,0,0,1-9.35-6.76,18.21,18.21,0,0,1-3.9-8.59c-.19-.88.24-1.88.27-2.83.05-1.59,0-3.18,0-4.92a5.92,5.92,0,0,0,.74-1.41c2.46-9.19,8.75-13.87,17.89-15,6.27-.79,12.53-.6,18.49,1.84,7.45,3.06,10.91,9.07,12,16.72.25,1.83.27,3.68.42,5.8l-16-1c-.09-.89-.19-1.76-.28-2.63a6.32,6.32,0,0,0-5.46-6,14.4,14.4,0,0,0-9.16,1.17,5.18,5.18,0,0,0-1.38,8.43,19.22,19.22,0,0,0,5.88,3.65c3.92,1.58,8,2.78,12,4.13,7.38,2.48,12.67,7,13.7,15.1.5,3.85-.82,7.55-2.38,11.06-3,6.64-8.37,10.19-15.32,11.29a37.64,37.64,0,0,1-17.32-1c-4.81-1.5-8.75-4.26-11-8.76-.77-1.5-1.78-3.26-1.4-5.28.09-.48-.73-1.06-.92-1.67-.62-2-1.4-4-.86-6.22.09-.34.54-.85.8-.84,4.64.16,9.28.39,13.92.61C110.9,67.8,110.94,67.85,111.07,67.93Z"/><path class="cls-1" d="M56.9,6.62s10.33,15.12,3,37.8c0,0-9.83,32.75,6.3,40.56,0,0-6.05-6.3-1-27.71S75.55,20.73,56.9,6.62Z"/><path class="cls-2" d="M67.85,19.68S94.45,31.06,70,52.48c0,0,25.19,12.6,3.27,32.5,0,0,25.2,11.09,24.44-22.17,0,0-5-8.31-10.58-9.57,0,0,20.16-12.35,3.53-31A39.26,39.26,0,0,0,67.85,19.68Z"/><path class="cls-3" d="M112.08,53.74s-5.29,8.57-21.92,4c0,0-19.15-10.83-33.26-4,0,0,11.09-11.59,23.69-6.3S93.69,56.51,112.08,53.74Z"/><path d="M170.33,58c-8.32,20.08-16.71,40.15-25.45,60.05-.91,2.07-4.34,4.27-6.62,4.29-25.66.31-51.32.2-77,.2-4.32,0-6.3-2.41-7.49-6.35C46.16,91,38.4,65.79,30.68,40.6c-.55-1.77-1.16-3.53-1.8-5.46-7,0-13.73,0-20.5,0-5.25,0-8.24-2.55-8.14-6.76.09-4,3-6.39,8.08-6.42,7.78-.05,15.57,0,23.36,0,6,0,7.54,1.16,9.3,6.89,7.8,25.47,15.65,50.92,23.27,76.44,1,3.26,2.33,4.18,5.63,4.15,20.33-.16,40.66,0,61-.18,1.49,0,3.83-1,4.34-2.16,3.19-7.31,6.32-14.66,9.47-22.11,2.51-6,5-12,7.62-18.13q1.14-2.73,2.31-5.5h-2.46c0-.94-.05-1.81-.05-2.59,0-5-7-8.05-12.3-9.63a8,8,0,0,1,3.79-1c6.77-.12,13.55-.18,20.33,0C169.73,48.32,172.58,52.58,170.33,58Z"/><path class="cls-3" d="M153.58,151.69a11.7,11.7,0,0,1-23.39.16,11.7,11.7,0,0,1,23.39-.16Z"/><path class="cls-3" d="M43.42,151.87a11.57,11.57,0,0,1,11.71-11.76,11.78,11.78,0,0,1,11.56,11.58,11.62,11.62,0,0,1-11.82,11.67A11.33,11.33,0,0,1,43.42,151.87Z"/><path d="M253.2,88.43A12.08,12.08,0,0,1,251,95.67a14,14,0,0,1-5.87,4.65,20,20,0,0,1-8.12,1.62H212V49.52h27a10.56,10.56,0,0,1,6.39,2,12.73,12.73,0,0,1,4.13,5A14.82,14.82,0,0,1,251,62.88a14.11,14.11,0,0,1-1.95,7.2,12,12,0,0,1-5.58,5,13.35,13.35,0,0,1,7.13,4.83A13.89,13.89,0,0,1,253.2,88.43ZM220.27,56.68V72.11h15.21a6.93,6.93,0,0,0,3.69-1,7.32,7.32,0,0,0,2.58-2.74,8,8,0,0,0,1-3.95,8.75,8.75,0,0,0-.88-4,6.94,6.94,0,0,0-2.4-2.73,6.2,6.2,0,0,0-3.51-1Zm24.44,30.2a8.75,8.75,0,0,0-.92-4,8.24,8.24,0,0,0-2.52-3,6.2,6.2,0,0,0-3.72-1.14H220.27v16H237A7.4,7.4,0,0,0,241,93.71a7.56,7.56,0,0,0,2.73-2.88A8,8,0,0,0,244.71,86.88Z"/><path d="M278.3,102.68a20.44,20.44,0,0,1-8.16-1.58,19.39,19.39,0,0,1-10.41-10.62A20.73,20.73,0,0,1,260.8,73a19.46,19.46,0,0,1,7-7.23A20,20,0,0,1,278.38,63,18.9,18.9,0,0,1,295.65,73a19.64,19.64,0,0,1,2.44,9.58c0,.59,0,1.14-.07,1.65s-.1.93-.15,1.28H266.93a11.78,11.78,0,0,0,6.13,9.8,11.28,11.28,0,0,0,5.54,1.42,12.4,12.4,0,0,0,6.16-1.63,8.36,8.36,0,0,0,3.95-4.28l6.94,2a14.8,14.8,0,0,1-3.8,5,18.77,18.77,0,0,1-6,3.55A21.42,21.42,0,0,1,278.3,102.68ZM266.71,80.09H290a11.66,11.66,0,0,0-1.88-5.76A12,12,0,0,0,284,70.42,11.47,11.47,0,0,0,278.3,69a11.27,11.27,0,0,0-5.57,1.41,11.65,11.65,0,0,0-4.17,3.91A11.83,11.83,0,0,0,266.71,80.09Z"/><path d="M318.46,102.68a26.67,26.67,0,0,1-9.22-1.59,19.65,19.65,0,0,1-7.46-4.76l3-5.46a22.78,22.78,0,0,0,6.68,4.28,18.15,18.15,0,0,0,6.68,1.33,10.74,10.74,0,0,0,5.54-1.27,4.07,4.07,0,0,0,2.14-3.72,3.25,3.25,0,0,0-1.11-2.71,10.21,10.21,0,0,0-3.21-1.54q-2.1-.64-5.06-1.46a47,47,0,0,1-6.94-2.6,10.8,10.8,0,0,1-4.21-3.32,8.56,8.56,0,0,1-1.4-5,10.48,10.48,0,0,1,1.92-6.36,12,12,0,0,1,5.35-4A21,21,0,0,1,319.13,63a22.82,22.82,0,0,1,7.79,1.29,17.08,17.08,0,0,1,6.31,4l-3.47,5.39a17.94,17.94,0,0,0-5.28-3.47,15,15,0,0,0-5.79-1.11,14,14,0,0,0-3.4.4A5.73,5.73,0,0,0,312.6,71a4,4,0,0,0-1.08,3,3.49,3.49,0,0,0,.89,2.48,6.79,6.79,0,0,0,2.66,1.61c1.18.44,2.63.92,4.35,1.46q4.51,1.32,7.68,2.59A12.42,12.42,0,0,1,332,85.41a8.14,8.14,0,0,1,1.74,5.51,10.19,10.19,0,0,1-4.17,8.66Q325.41,102.69,318.46,102.68Z"/><path d="M362.4,100.1c-.69.34-1.55.71-2.59,1.1a25.7,25.7,0,0,1-3.5,1,18.57,18.57,0,0,1-4,.44,12.07,12.07,0,0,1-4.65-.88A7.41,7.41,0,0,1,344.2,99a8.9,8.9,0,0,1-1.3-5v-24h-5.09V63.62h5.09V50.92H351v12.7h8.41V69.9H351V91.33a4,4,0,0,0,1.29,2.94,4.26,4.26,0,0,0,2.84,1,8.92,8.92,0,0,0,3.25-.59c1-.39,1.8-.71,2.29-1Z"/><path class="cls-3" d="M418.29,61.85a12,12,0,0,0-2.14-1.74,21.43,21.43,0,0,0-3.33-1.73,26.28,26.28,0,0,0-4.13-1.33,20.35,20.35,0,0,0-4.58-.52q-5.17,0-7.68,1.92a6.29,6.29,0,0,0-2.51,5.3,5.4,5.4,0,0,0,1.4,3.93,10.53,10.53,0,0,0,4.29,2.39q2.88,1,7.23,2.07a51.93,51.93,0,0,1,9.23,3,14.17,14.17,0,0,1,6,4.6,12.67,12.67,0,0,1,2.07,7.58,14.69,14.69,0,0,1-1.48,6.84,12.43,12.43,0,0,1-4.13,4.68,18.67,18.67,0,0,1-6.13,2.64,31.16,31.16,0,0,1-7.46.85,38,38,0,0,1-7.79-.81,35.4,35.4,0,0,1-7.38-2.4,32,32,0,0,1-6.46-3.88l3.77-7.09a15.4,15.4,0,0,0,2.76,2.11A31,31,0,0,0,394,92.42a33.88,33.88,0,0,0,5.24,1.73,24,24,0,0,0,5.8.7q4.95,0,7.57-1.72a5.59,5.59,0,0,0,2.62-5,5.51,5.51,0,0,0-1.7-4.23,13.76,13.76,0,0,0-4.95-2.69c-2.16-.73-4.75-1.47-7.75-2.21A52.24,52.24,0,0,1,392.22,76a12.53,12.53,0,0,1-5.2-4.27,11.81,11.81,0,0,1-1.74-6.67,14.81,14.81,0,0,1,2.51-8.72A15.47,15.47,0,0,1,394.62,51a25,25,0,0,1,9.71-1.8,28.12,28.12,0,0,1,6.72.78A29.38,29.38,0,0,1,417,52a31.37,31.37,0,0,1,5.06,3Z"/><path class="cls-3" d="M465.91,101.94h-8.12V80.56q0-5.19-1.92-7.74a6.36,6.36,0,0,0-5.39-2.55,9.67,9.67,0,0,0-4.43,1.16A13.4,13.4,0,0,0,442,74.59a12.35,12.35,0,0,0-2.59,4.61v22.74h-8.12V48h8.12V71.37A16.51,16.51,0,0,1,453.73,63a12.77,12.77,0,0,1,6,1.25,9.64,9.64,0,0,1,3.73,3.4,14.12,14.12,0,0,1,1.91,5,30.77,30.77,0,0,1,.56,6Z"/><path class="cls-3" d="M492.71,102.68a20.36,20.36,0,0,1-8.2-1.57,18.73,18.73,0,0,1-6.24-4.36,19.89,19.89,0,0,1-4-6.32,20.32,20.32,0,0,1-1.4-7.57,20.57,20.57,0,0,1,1.4-7.61,19.4,19.4,0,0,1,4-6.33,18.75,18.75,0,0,1,6.28-4.31,21.86,21.86,0,0,1,16.32,0,18.71,18.71,0,0,1,6.27,4.31,19.26,19.26,0,0,1,4,6.33,20.78,20.78,0,0,1,1.4,7.61,20.53,20.53,0,0,1-1.4,7.57,19.75,19.75,0,0,1-4,6.32,18.56,18.56,0,0,1-6.27,4.36A20.44,20.44,0,0,1,492.71,102.68ZM481.19,82.93a13.74,13.74,0,0,0,1.55,6.55,12.11,12.11,0,0,0,4.14,4.59,10.51,10.51,0,0,0,5.83,1.67A10.36,10.36,0,0,0,498.5,94a12.26,12.26,0,0,0,4.18-4.66,14.53,14.53,0,0,0,0-13.06,12.32,12.32,0,0,0-4.18-4.63A10.36,10.36,0,0,0,492.71,70a10.11,10.11,0,0,0-5.83,1.75,12.66,12.66,0,0,0-4.14,4.62A13.71,13.71,0,0,0,481.19,82.93Z"/><path class="cls-3" d="M541.73,102.68a15.25,15.25,0,0,1-8.19-2.19,16.48,16.48,0,0,1-5.61-5.71v22.89h-8.12v-54H527v6.95a16.55,16.55,0,0,1,5.76-5.49,15.43,15.43,0,0,1,7.9-2,16.89,16.89,0,0,1,7.31,1.58A17.35,17.35,0,0,1,553.69,69a20.77,20.77,0,0,1,5.17,13.82,22.85,22.85,0,0,1-2.17,10,18.1,18.1,0,0,1-6.06,7.21A15.3,15.3,0,0,1,541.73,102.68Zm-2.65-6.94a10,10,0,0,0,4.68-1.09,11.63,11.63,0,0,0,3.62-2.91,13.32,13.32,0,0,0,2.33-4.15,14.59,14.59,0,0,0,.81-4.81,13.88,13.88,0,0,0-.89-5,12.12,12.12,0,0,0-2.54-4.07A12.64,12.64,0,0,0,543.25,71a11.13,11.13,0,0,0-4.77-1,10.18,10.18,0,0,0-3.24.58,13,13,0,0,0-3.18,1.6,12,12,0,0,0-2.58,2.39,8.28,8.28,0,0,0-1.55,2.9v10a15.55,15.55,0,0,0,2.73,4.18,13.78,13.78,0,0,0,3.91,3A9.88,9.88,0,0,0,539.08,95.74Z"/><path d="M230.84,142.11a6.34,6.34,0,0,1-.92,3.37,6.83,6.83,0,0,1-2.48,2.38,7.08,7.08,0,0,1-3.48.88H212V123.16h11.92a5.16,5.16,0,0,1,3.12,1,6.2,6.2,0,0,1,2,2.45,7.32,7.32,0,0,1,.7,3.11,6.79,6.79,0,0,1-1,3.55,5.8,5.8,0,0,1-2.71,2.4,6.32,6.32,0,0,1,3.48,2.43A6.8,6.8,0,0,1,230.84,142.11Zm-17-17.29v10.23h9.36a4.24,4.24,0,0,0,2.47-.74,5.25,5.25,0,0,0,1.68-1.91,5.34,5.34,0,0,0,.61-2.47,5.56,5.56,0,0,0-.58-2.55,4.82,4.82,0,0,0-1.6-1.86,4.07,4.07,0,0,0-2.36-.7Zm15.16,17a5.48,5.48,0,0,0-2.34-4.5,4.14,4.14,0,0,0-2.45-.76H213.84v10.48H224a4.67,4.67,0,0,0,2.56-.74,5.38,5.38,0,0,0,1.82-1.94A5.23,5.23,0,0,0,229,141.86Z"/><path d="M235.13,140.83V130h1.8v10.54a9.27,9.27,0,0,0,1.17,5.19,4,4,0,0,0,3.55,1.71,7,7,0,0,0,3-.7,8.18,8.18,0,0,0,2.58-2,8.31,8.31,0,0,0,1.65-3V130h1.8v16.32a.94.94,0,0,0,.2.65.84.84,0,0,0,.56.25v1.48l-.56,0a1.72,1.72,0,0,1-.34,0,1.56,1.56,0,0,1-1-.52,1.77,1.77,0,0,1-.43-1.1l0-2.8a9.07,9.07,0,0,1-3.37,3.5,8.87,8.87,0,0,1-4.62,1.28,5.18,5.18,0,0,1-4.47-2.09Q235.13,144.93,235.13,140.83Z"/><path d="M257.71,155.08c.39,0,.73,0,1,0a1.39,1.39,0,0,0,.67-.17,1.5,1.5,0,0,0,.66-.55,9.42,9.42,0,0,0,.92-1.77c.38-.87.92-2.16,1.62-3.86L254.25,130h1.91l7.42,16.8,6.88-16.8h1.84L262,154.65a3.45,3.45,0,0,1-.59,1,2.83,2.83,0,0,1-.92.72,3.31,3.31,0,0,1-1.29.31l-.69.05a5.85,5.85,0,0,1-.83,0Z"/><path d="M275.9,125.76v-3.32h1.8v3.32Zm0,23V130h1.8v18.73Z"/><path d="M298.67,148.74h-1.8V138.33a10.26,10.26,0,0,0-1-5.25,3.54,3.54,0,0,0-3.26-1.67,7,7,0,0,0-3.12.75,8.47,8.47,0,0,0-2.66,2.07,8,8,0,0,0-1.64,3v11.56h-1.8V130h1.69v4.49a8.4,8.4,0,0,1,2-2.5,10.35,10.35,0,0,1,2.81-1.67,8.79,8.79,0,0,1,3.2-.61,5.61,5.61,0,0,1,2.62.56,4.57,4.57,0,0,1,1.73,1.6,7.19,7.19,0,0,1,.95,2.58,19.48,19.48,0,0,1,.29,3.52Z"/><path d="M311.67,149.1a8.2,8.2,0,0,1-3.55-.79,8.66,8.66,0,0,1-2.81-2.18,10.89,10.89,0,0,1-1.83-3.1,9.57,9.57,0,0,1-.67-3.55,10.81,10.81,0,0,1,.63-3.67,9.66,9.66,0,0,1,1.8-3.12,8.85,8.85,0,0,1,2.76-2.14,7.76,7.76,0,0,1,3.53-.8A7.27,7.27,0,0,1,315.8,131a12.06,12.06,0,0,1,3.08,3.09V130h1.65v19.07a7.1,7.1,0,0,1-1.22,4.24,7.5,7.5,0,0,1-3.24,2.58,11.25,11.25,0,0,1-4.36.84,9.8,9.8,0,0,1-5.21-1.19,9.31,9.31,0,0,1-3.11-3.13l1.22-.83a6.92,6.92,0,0,0,3,2.77,9.42,9.42,0,0,0,4.07.9,8.79,8.79,0,0,0,3.51-.69,5.92,5.92,0,0,0,2.56-2.06,5.82,5.82,0,0,0,1-3.37v-4.11a8.25,8.25,0,0,1-3,2.94A8,8,0,0,1,311.67,149.1Zm.43-1.55a6.27,6.27,0,0,0,2.31-.43,8,8,0,0,0,2-1.17,7.25,7.25,0,0,0,1.55-1.64,4,4,0,0,0,.72-1.8v-6.16a7.36,7.36,0,0,0-1.64-2.58,8.07,8.07,0,0,0-2.46-1.76,6.68,6.68,0,0,0-2.81-.63,6.28,6.28,0,0,0-3,.72,7.1,7.1,0,0,0-2.25,1.89,8.76,8.76,0,0,0-1.41,2.63,9.23,9.23,0,0,0-.48,2.9,8.24,8.24,0,0,0,.57,3.06,8.45,8.45,0,0,0,1.61,2.57,7.23,7.23,0,0,0,2.38,1.77A6.74,6.74,0,0,0,312.1,147.55Z"/><path d="M362.93,148.74h-1.8V138.33a9.79,9.79,0,0,0-1.1-5.23,3.72,3.72,0,0,0-3.37-1.69,5.89,5.89,0,0,0-4.08,1.63,8.8,8.8,0,0,0-2.51,4.18v11.52h-1.8V138.33a9.89,9.89,0,0,0-1.08-5.25,3.72,3.72,0,0,0-3.35-1.67,5.93,5.93,0,0,0-4.09,1.6,8.76,8.76,0,0,0-2.54,4.17v11.56h-1.8V130h1.69v4.49a9.3,9.3,0,0,1,3.07-3.54,7.29,7.29,0,0,1,4.1-1.24,5.41,5.41,0,0,1,3.84,1.39,5.75,5.75,0,0,1,1.78,3.67,10.51,10.51,0,0,1,3.17-3.78,7.17,7.17,0,0,1,4.18-1.28,5.59,5.59,0,0,1,2.61.56,4.78,4.78,0,0,1,1.77,1.61,7.34,7.34,0,0,1,1,2.61,18.34,18.34,0,0,1,.3,3.48Z"/><path d="M366.82,143.35a4.49,4.49,0,0,1,1-2.92,6.65,6.65,0,0,1,2.77-1.94,11,11,0,0,1,4.08-.7,18.46,18.46,0,0,1,3,.25,17.28,17.28,0,0,1,2.77.68V137a5.66,5.66,0,0,0-1.5-4.12,5.49,5.49,0,0,0-4.12-1.54,8.28,8.28,0,0,0-2.92.58,15,15,0,0,0-3.1,1.66l-.75-1.3a17.13,17.13,0,0,1,3.55-1.86,9.77,9.77,0,0,1,3.4-.63,7.11,7.11,0,0,1,5.3,2,7.35,7.35,0,0,1,1.94,5.38v9.25a.94.94,0,0,0,.2.65.87.87,0,0,0,.59.25v1.48l-.54,0h-.36a1.63,1.63,0,0,1-1.06-.57,1.79,1.79,0,0,1-.41-1v-1.47a8.73,8.73,0,0,1-3.34,2.52,10.41,10.41,0,0,1-4.26.9,6.6,6.6,0,0,1-3.19-.76,5.72,5.72,0,0,1-2.24-2.06A5.45,5.45,0,0,1,366.82,143.35Zm12.9,1.55a4.2,4.2,0,0,0,.54-.9,2.08,2.08,0,0,0,.18-.79v-3.09a15.41,15.41,0,0,0-2.7-.75,16.15,16.15,0,0,0-2.88-.25,8.37,8.37,0,0,0-4.56,1.11,3.42,3.42,0,0,0-1.75,3,4.2,4.2,0,0,0,.61,2.18,4.55,4.55,0,0,0,1.72,1.62,5.18,5.18,0,0,0,2.53.61,9,9,0,0,0,3.73-.77A6.28,6.28,0,0,0,379.72,144.9Z"/><path d="M386.42,139.44a10.32,10.32,0,0,1,1.12-4.8,9.39,9.39,0,0,1,3.06-3.54,7.92,7.92,0,0,1,8.77,0,10,10,0,0,1,3,3.1V122.44h1.8v23.92a.94.94,0,0,0,.2.65.84.84,0,0,0,.56.25v1.48a3.36,3.36,0,0,1-.87,0,1.74,1.74,0,0,1-1.08-.61,1.6,1.6,0,0,1-.43-1.08V145a8.55,8.55,0,0,1-3.1,3,7.87,7.87,0,0,1-4,1.12,8.12,8.12,0,0,1-3.6-.81,9.11,9.11,0,0,1-2.86-2.17,10,10,0,0,1-1.87-3.09A9.7,9.7,0,0,1,386.42,139.44Zm15.92,3v-6.14a7.13,7.13,0,0,0-1.62-2.49A8.85,8.85,0,0,0,398.2,132a6.5,6.5,0,0,0-2.78-.66,6.17,6.17,0,0,0-2.93.68,7.06,7.06,0,0,0-2.27,1.83,8.2,8.2,0,0,0-1.46,2.6,8.9,8.9,0,0,0-.5,3,8.23,8.23,0,0,0,.57,3,8.38,8.38,0,0,0,1.61,2.58,7.26,7.26,0,0,0,2.37,1.76,6.87,6.87,0,0,0,2.94.63,6,6,0,0,0,2.07-.4,8.51,8.51,0,0,0,2.09-1.09,7.27,7.27,0,0,0,1.66-1.61A4,4,0,0,0,402.34,142.46Z"/><path d="M417.83,149.1a8.78,8.78,0,0,1-3.67-.77,9.14,9.14,0,0,1-2.94-2.12,10,10,0,0,1-2-3.12,10.32,10.32,0,0,1-.7-3.75,9.8,9.8,0,0,1,1.19-4.81,9.41,9.41,0,0,1,3.28-3.47,8.64,8.64,0,0,1,4.68-1.31,8.54,8.54,0,0,1,4.72,1.33,9.78,9.78,0,0,1,3.26,3.5,9.6,9.6,0,0,1,1.21,4.76v.43a1.28,1.28,0,0,1,0,.36H410.44a8.45,8.45,0,0,0,1.19,3.83,7.84,7.84,0,0,0,2.69,2.71,6.77,6.77,0,0,0,3.58,1,7.23,7.23,0,0,0,3.68-1,5.6,5.6,0,0,0,2.41-2.59l1.58.43a6.42,6.42,0,0,1-1.71,2.38,8.69,8.69,0,0,1-2.73,1.63A9.19,9.19,0,0,1,417.83,149.1Zm-7.46-10.38h14.81a8.64,8.64,0,0,0-1.15-3.87,7.56,7.56,0,0,0-2.65-2.65,7,7,0,0,0-3.62-1,6.84,6.84,0,0,0-3.6,1,7.42,7.42,0,0,0-2.63,2.65A8.52,8.52,0,0,0,410.37,138.72Z"/><path d="M446,149.1a11.09,11.09,0,0,1-4.15-.76,9.1,9.1,0,0,1-3.35-2.3l.83-1.26a10.64,10.64,0,0,0,3.14,2.14,8.84,8.84,0,0,0,3.45.67,6.89,6.89,0,0,0,3.91-1,3.18,3.18,0,0,0,1.5-2.79,2.48,2.48,0,0,0-.71-1.89,5.06,5.06,0,0,0-2-1.07c-.88-.28-1.94-.57-3.19-.88a27.54,27.54,0,0,1-3.23-1,4.59,4.59,0,0,1-2-1.4,3.84,3.84,0,0,1-.65-2.34,4.86,4.86,0,0,1,.92-3,5.42,5.42,0,0,1,2.49-1.79,10.47,10.47,0,0,1,7.31.12,6,6,0,0,1,2.5,1.91l-1,1.16a5.33,5.33,0,0,0-2.34-1.71,8.55,8.55,0,0,0-3.17-.56,8.16,8.16,0,0,0-2.45.36,3.87,3.87,0,0,0-1.85,1.16,3.19,3.19,0,0,0-.71,2.17,2.57,2.57,0,0,0,.52,1.69,3.69,3.69,0,0,0,1.57,1c.7.25,1.56.52,2.6.8a36.22,36.22,0,0,1,3.78,1.12,6.26,6.26,0,0,1,2.45,1.48,3.63,3.63,0,0,1,.86,2.57,4.78,4.78,0,0,1-1.94,4A8.35,8.35,0,0,1,446,149.1Z"/><path d="M457.38,125.76v-3.32h1.8v3.32Zm0,23V130h1.8v18.73Z"/><path d="M492.36,148.74h-1.8V138.33a9.79,9.79,0,0,0-1.1-5.23,3.73,3.73,0,0,0-3.37-1.69A5.92,5.92,0,0,0,482,133a8.79,8.79,0,0,0-2.5,4.18v11.52h-1.8V138.33a9.89,9.89,0,0,0-1.08-5.25,3.72,3.72,0,0,0-3.35-1.67,5.93,5.93,0,0,0-4.09,1.6,8.69,8.69,0,0,0-2.54,4.17v11.56h-1.8V130h1.69v4.49a9.2,9.2,0,0,1,3.06-3.54,7.35,7.35,0,0,1,4.11-1.24,5.41,5.41,0,0,1,3.84,1.39,5.8,5.8,0,0,1,1.78,3.67,10.41,10.41,0,0,1,3.17-3.78,7.15,7.15,0,0,1,4.18-1.28,5.59,5.59,0,0,1,2.61.56,4.68,4.68,0,0,1,1.76,1.61,7.16,7.16,0,0,1,1,2.61,17.52,17.52,0,0,1,.31,3.48Z"/><path d="M507,149.1a7.61,7.61,0,0,1-4.31-1.27,10.46,10.46,0,0,1-3-3.11v11.69h-1.8V130h1.66v3.77a9,9,0,0,1,3.06-2.93,7.83,7.83,0,0,1,4-1.13,7.94,7.94,0,0,1,3.6.81,9.13,9.13,0,0,1,2.83,2.19,10.16,10.16,0,0,1,1.87,3.11,9.68,9.68,0,0,1,.67,3.58,10.79,10.79,0,0,1-1.08,4.8,8.94,8.94,0,0,1-3,3.53A7.66,7.66,0,0,1,507,149.1Zm-.43-1.62a6.43,6.43,0,0,0,3-.68,7.37,7.37,0,0,0,2.25-1.83,8.76,8.76,0,0,0,1.94-5.53,8.31,8.31,0,0,0-.57-3.06,8.5,8.5,0,0,0-1.6-2.57,8.08,8.08,0,0,0-2.38-1.77,6.6,6.6,0,0,0-2.94-.66,6.18,6.18,0,0,0-2.07.39,8.26,8.26,0,0,0-2.09,1.11,7.05,7.05,0,0,0-1.64,1.63,4.44,4.44,0,0,0-.79,1.88v6.14a10.15,10.15,0,0,0,1.67,2.49,7.77,7.77,0,0,0,2.4,1.79A6.35,6.35,0,0,0,506.52,147.48Z"/><path d="M520,122.44h1.84v22.72a2.35,2.35,0,0,0,.54,1.79,2,2,0,0,0,1.4.49,6.2,6.2,0,0,0,1.19-.11A5,5,0,0,0,526,147l.36,1.48a10.41,10.41,0,0,1-1.51.4,8.11,8.11,0,0,1-1.55.18,3.26,3.26,0,0,1-2.43-.93,3.32,3.32,0,0,1-.92-2.48Z"/><path d="M537.13,149.1a8.81,8.81,0,0,1-3.67-.77,9.14,9.14,0,0,1-2.94-2.12,10.13,10.13,0,0,1-2.64-6.87,9.69,9.69,0,0,1,1.19-4.81,9.39,9.39,0,0,1,3.27-3.47,8.7,8.7,0,0,1,4.69-1.31,8.56,8.56,0,0,1,4.72,1.33,10,10,0,0,1,3.26,3.5,9.7,9.7,0,0,1,1.2,4.76v.43a1.86,1.86,0,0,1,0,.36H529.75a8.33,8.33,0,0,0,1.19,3.83,7.9,7.9,0,0,0,2.68,2.71,6.81,6.81,0,0,0,3.59,1,7.2,7.2,0,0,0,3.67-1,5.54,5.54,0,0,0,2.41-2.59l1.59.43a6.42,6.42,0,0,1-1.71,2.38,8.63,8.63,0,0,1-2.74,1.63A9.11,9.11,0,0,1,537.13,149.1Zm-7.45-10.38h14.8a8.51,8.51,0,0,0-1.15-3.87,7.48,7.48,0,0,0-2.65-2.65,6.94,6.94,0,0,0-3.62-1,6.84,6.84,0,0,0-3.6,1,7.5,7.5,0,0,0-2.63,2.65A8.51,8.51,0,0,0,529.68,138.72Z"/><path class="cls-2" d="M144.68,85c2.51-6,5-12,7.62-18.13C152.41,75.27,151.69,85.12,144.68,85Z"/></svg>