<svg id="Layer_1" data-name="Layer 1" xmlns="http://www.w3.org/2000/svg" viewBox="0 0 558.63 156.74"><defs><style>.cls-1{fill:#7d797a;}.cls-2{fill:#040404;}.cls-3{fill:#f9cd0c;}</style></defs><title>logo</title><path d="M111.07,67.93c.11.49.27,1,.38,1.61C113,77.15,121.92,78.8,127,75.42a7.09,7.09,0,0,0,2.11-2.31c1.21-2.13.9-4-1.2-5.23a39.43,39.43,0,0,0-6.64-2.94c-2.07-.76-4.24-1.26-6.51-1.91l1.09-1.5c-.27,0-.46-.13-.56-.07-2.09,1.34-3.92.32-5.78-.6a29.25,29.25,0,0,1-9.35-6.76,18.21,18.21,0,0,1-3.9-8.59c-.19-.88.24-1.88.27-2.83.05-1.59,0-3.18,0-4.92a5.92,5.92,0,0,0,.74-1.41c2.46-9.19,8.75-13.87,17.89-15,6.27-.79,12.53-.6,18.49,1.84,7.45,3.06,10.91,9.07,12,16.72.25,1.83.27,3.68.42,5.8l-16-1c-.09-.89-.19-1.76-.28-2.63a6.32,6.32,0,0,0-5.46-6,14.4,14.4,0,0,0-9.16,1.17,5.18,5.18,0,0,0-1.38,8.43,19.22,19.22,0,0,0,5.88,3.65c3.92,1.58,8,2.78,12,4.13,7.38,2.48,12.67,7,13.7,15.1.5,3.85-.82,7.55-2.38,11.06-3,6.64-8.37,10.19-15.32,11.29a37.64,37.64,0,0,1-17.32-1c-4.81-1.5-8.75-4.26-11-8.76-.77-1.5-1.78-3.26-1.4-5.28.09-.48-.73-1.06-.92-1.67-.62-2-1.4-4-.86-6.22.09-.34.54-.85.8-.84,4.64.16,9.28.39,13.92.61C110.9,67.8,110.94,67.85,111.07,67.93Z" transform="translate(-0.24 -6.62)"/><path class="cls-1" d="M56.9,6.62s10.33,15.12,3,37.8c0,0-9.83,32.75,6.3,40.56,0,0-6.05-6.3-1-27.71S75.55,20.73,56.9,6.62Z" transform="translate(-0.24 -6.62)"/><path class="cls-2" d="M67.85,19.68S94.45,31.06,70,52.48c0,0,25.19,12.6,3.27,32.5,0,0,25.2,11.09,24.44-22.17,0,0-5-8.31-10.58-9.57,0,0,20.16-12.35,3.53-31A39.26,39.26,0,0,0,67.85,19.68Z" transform="translate(-0.24 -6.62)"/><path class="cls-3" d="M112.08,53.74s-5.29,8.57-21.92,4c0,0-19.15-10.83-33.26-4,0,0,11.09-11.59,23.69-6.3S93.69,56.51,112.08,53.74Z" transform="translate(-0.24 -6.62)"/><path d="M170.33,58c-8.32,20.08-16.71,40.15-25.45,60.05-.91,2.07-4.34,4.27-6.62,4.29-25.66.31-51.32.2-77,.2-4.32,0-6.3-2.41-7.49-6.35C46.16,91,38.4,65.79,30.68,40.6c-.55-1.77-1.16-3.53-1.8-5.46-7,0-13.73,0-20.5,0-5.25,0-8.24-2.55-8.14-6.76.09-4,3-6.39,8.08-6.42,7.78-.05,15.57,0,23.36,0,6,0,7.54,1.16,9.3,6.89,7.8,25.47,15.65,50.92,23.27,76.44,1,3.26,2.33,4.18,5.63,4.15,20.33-.16,40.66,0,61-.18,1.49,0,3.83-1,4.34-2.16,3.19-7.31,6.32-14.66,9.47-22.11,2.51-6,5-12,7.62-18.13q1.14-2.73,2.31-5.5h-2.46c0-.94-.05-1.81-.05-2.59,0-5-7-8.05-12.3-9.63a8,8,0,0,1,3.79-1c6.77-.12,13.55-.18,20.33,0C169.73,48.32,172.58,52.58,170.33,58Z" transform="translate(-0.24 -6.62)"/><path class="cls-3" d="M153.58,151.69a11.7,11.7,0,0,1-23.39.16,11.7,11.7,0,0,1,23.39-.16Z" transform="translate(-0.24 -6.62)"/><path class="cls-3" d="M43.42,151.87a11.57,11.57,0,0,1,11.71-11.76,11.78,11.78,0,0,1,11.56,11.58,11.62,11.62,0,0,1-11.82,11.67A11.33,11.33,0,0,1,43.42,151.87Z" transform="translate(-0.24 -6.62)"/><path d="M253.2,88.43A12.08,12.08,0,0,1,251,95.67a14,14,0,0,1-5.87,4.65,20,20,0,0,1-8.12,1.62H212V49.52h27a10.56,10.56,0,0,1,6.39,2,12.73,12.73,0,0,1,4.13,5A14.82,14.82,0,0,1,251,62.88a14.11,14.11,0,0,1-1.95,7.2,12,12,0,0,1-5.58,5,13.35,13.35,0,0,1,7.13,4.83A13.89,13.89,0,0,1,253.2,88.43ZM220.27,56.68V72.11h15.21a6.93,6.93,0,0,0,3.69-1,7.32,7.32,0,0,0,2.58-2.74,8,8,0,0,0,1-3.95,8.75,8.75,0,0,0-.88-4,6.94,6.94,0,0,0-2.4-2.73,6.2,6.2,0,0,0-3.51-1Zm24.44,30.2a8.75,8.75,0,0,0-.92-4,8.24,8.24,0,0,0-2.52-3,6.2,6.2,0,0,0-3.72-1.14H220.27v16H237A7.4,7.4,0,0,0,241,93.71a7.56,7.56,0,0,0,2.73-2.88A8,8,0,0,0,244.71,86.88Z" transform="translate(-0.24 -6.62)"/><path d="M278.3,102.68a20.44,20.44,0,0,1-8.16-1.58,19.39,19.39,0,0,1-10.41-10.62A20.73,20.73,0,0,1,260.8,73a19.46,19.46,0,0,1,7-7.23A20,20,0,0,1,278.38,63,18.9,18.9,0,0,1,295.65,73a19.64,19.64,0,0,1,2.44,9.58c0,.59,0,1.14-.07,1.65s-.1.93-.15,1.28H266.93a11.78,11.78,0,0,0,6.13,9.8,11.28,11.28,0,0,0,5.54,1.42,12.4,12.4,0,0,0,6.16-1.63,8.36,8.36,0,0,0,3.95-4.28l6.94,2a14.8,14.8,0,0,1-3.8,5,18.77,18.77,0,0,1-6,3.55A21.42,21.42,0,0,1,278.3,102.68ZM266.71,80.09H290a11.66,11.66,0,0,0-1.88-5.76A12,12,0,0,0,284,70.42,11.47,11.47,0,0,0,278.3,69a11.27,11.27,0,0,0-5.57,1.41,11.65,11.65,0,0,0-4.17,3.91A11.83,11.83,0,0,0,266.71,80.09Z" transform="translate(-0.24 -6.62)"/><path d="M318.46,102.68a26.67,26.67,0,0,1-9.22-1.59,19.65,19.65,0,0,1-7.46-4.76l3-5.46a22.78,22.78,0,0,0,6.68,4.28,18.15,18.15,0,0,0,6.68,1.33,10.74,10.74,0,0,0,5.54-1.27,4.07,4.07,0,0,0,2.14-3.72,3.25,3.25,0,0,0-1.11-2.71,10.21,10.21,0,0,0-3.21-1.54q-2.1-.64-5.06-1.46a47,47,0,0,1-6.94-2.6,10.8,10.8,0,0,1-4.21-3.32,8.56,8.56,0,0,1-1.4-5,10.48,10.48,0,0,1,1.92-6.36,12,12,0,0,1,5.35-4A21,21,0,0,1,319.13,63a22.82,22.82,0,0,1,7.79,1.29,17.08,17.08,0,0,1,6.31,4l-3.47,5.39a17.94,17.94,0,0,0-5.28-3.47,15,15,0,0,0-5.79-1.11,14,14,0,0,0-3.4.4A5.73,5.73,0,0,0,312.6,71a4,4,0,0,0-1.08,3,3.49,3.49,0,0,0,.89,2.48,6.79,6.79,0,0,0,2.66,1.61c1.18.44,2.63.92,4.35,1.46q4.51,1.32,7.68,2.59A12.42,12.42,0,0,1,332,85.41a8.14,8.14,0,0,1,1.74,5.51,10.19,10.19,0,0,1-4.17,8.66Q325.41,102.69,318.46,102.68Z" transform="translate(-0.24 -6.62)"/><path d="M362.4,100.1c-.69.34-1.55.71-2.59,1.1a25.7,25.7,0,0,1-3.5,1,18.57,18.57,0,0,1-4,.44,12.07,12.07,0,0,1-4.65-.88A7.41,7.41,0,0,1,344.2,99a8.9,8.9,0,0,1-1.3-5v-24h-5.09V63.62h5.09V50.92H351v12.7h8.41V69.9H351V91.33a4,4,0,0,0,1.29,2.94,4.26,4.26,0,0,0,2.84,1,8.92,8.92,0,0,0,3.25-.59c1-.39,1.8-.71,2.29-1Z" transform="translate(-0.24 -6.62)"/><path class="cls-3" d="M418.29,61.85a12,12,0,0,0-2.14-1.74,21.43,21.43,0,0,0-3.33-1.73,26.28,26.28,0,0,0-4.13-1.33,20.35,20.35,0,0,0-4.58-.52q-5.17,0-7.68,1.92a6.29,6.29,0,0,0-2.51,5.3,5.4,5.4,0,0,0,1.4,3.93,10.53,10.53,0,0,0,4.29,2.39q2.88,1,7.23,2.07a51.93,51.93,0,0,1,9.23,3,14.17,14.17,0,0,1,6,4.6,12.67,12.67,0,0,1,2.07,7.58,14.69,14.69,0,0,1-1.48,6.84,12.43,12.43,0,0,1-4.13,4.68,18.67,18.67,0,0,1-6.13,2.64,31.16,31.16,0,0,1-7.46.85,38,38,0,0,1-7.79-.81,35.4,35.4,0,0,1-7.38-2.4,32,32,0,0,1-6.46-3.88l3.77-7.09a15.4,15.4,0,0,0,2.76,2.11A31,31,0,0,0,394,92.42a33.88,33.88,0,0,0,5.24,1.73,24,24,0,0,0,5.8.7q4.95,0,7.57-1.72a5.59,5.59,0,0,0,2.62-5,5.51,5.51,0,0,0-1.7-4.23,13.76,13.76,0,0,0-4.95-2.69c-2.16-.73-4.75-1.47-7.75-2.21A52.24,52.24,0,0,1,392.22,76a12.53,12.53,0,0,1-5.2-4.27,11.81,11.81,0,0,1-1.74-6.67,14.81,14.81,0,0,1,2.51-8.72A15.47,15.47,0,0,1,394.62,51a25,25,0,0,1,9.71-1.8,28.12,28.12,0,0,1,6.72.78A29.38,29.38,0,0,1,417,52a31.37,31.37,0,0,1,5.06,3Z" transform="translate(-0.24 -6.62)"/><path class="cls-3" d="M465.91,101.94h-8.12V80.56q0-5.19-1.92-7.74a6.36,6.36,0,0,0-5.39-2.55,9.67,9.67,0,0,0-4.43,1.16A13.4,13.4,0,0,0,442,74.59a12.35,12.35,0,0,0-2.59,4.61v22.74h-8.12V48h8.12V71.37A16.51,16.51,0,0,1,453.73,63a12.77,12.77,0,0,1,6,1.25,9.64,9.64,0,0,1,3.73,3.4,14.12,14.12,0,0,1,1.91,5,30.77,30.77,0,0,1,.56,6Z" transform="translate(-0.24 -6.62)"/><path class="cls-3" d="M492.71,102.68a20.36,20.36,0,0,1-8.2-1.57,18.73,18.73,0,0,1-6.24-4.36,19.89,19.89,0,0,1-4-6.32,20.32,20.32,0,0,1-1.4-7.57,20.57,20.57,0,0,1,1.4-7.61,19.4,19.4,0,0,1,4-6.33,18.75,18.75,0,0,1,6.28-4.31,21.86,21.86,0,0,1,16.32,0,18.71,18.71,0,0,1,6.27,4.31,19.26,19.26,0,0,1,4,6.33,20.78,20.78,0,0,1,1.4,7.61,20.53,20.53,0,0,1-1.4,7.57,19.75,19.75,0,0,1-4,6.32,18.56,18.56,0,0,1-6.27,4.36A20.44,20.44,0,0,1,492.71,102.68ZM481.19,82.93a13.74,13.74,0,0,0,1.55,6.55,12.11,12.11,0,0,0,4.14,4.59,10.51,10.51,0,0,0,5.83,1.67A10.36,10.36,0,0,0,498.5,94a12.26,12.26,0,0,0,4.18-4.66,14.53,14.53,0,0,0,0-13.06,12.32,12.32,0,0,0-4.18-4.63A10.36,10.36,0,0,0,492.71,70a10.11,10.11,0,0,0-5.83,1.75,12.66,12.66,0,0,0-4.14,4.62A13.71,13.71,0,0,0,481.19,82.93Z" transform="translate(-0.24 -6.62)"/><path class="cls-3" d="M541.73,102.68a15.25,15.25,0,0,1-8.19-2.19,16.48,16.48,0,0,1-5.61-5.71v22.89h-8.12v-54H527v6.95a16.55,16.55,0,0,1,5.76-5.49,15.43,15.43,0,0,1,7.9-2,16.89,16.89,0,0,1,7.31,1.58A17.35,17.35,0,0,1,553.69,69a20.77,20.77,0,0,1,5.17,13.82,22.85,22.85,0,0,1-2.17,10,18.1,18.1,0,0,1-6.06,7.21A15.3,15.3,0,0,1,541.73,102.68Zm-2.65-6.94a10,10,0,0,0,4.68-1.09,11.63,11.63,0,0,0,3.62-2.91,13.32,13.32,0,0,0,2.33-4.15,14.59,14.59,0,0,0,.81-4.81,13.88,13.88,0,0,0-.89-5,12.12,12.12,0,0,0-2.54-4.07A12.64,12.64,0,0,0,543.25,71a11.13,11.13,0,0,0-4.77-1,10.18,10.18,0,0,0-3.24.58,13,13,0,0,0-3.18,1.6,12,12,0,0,0-2.58,2.39,8.28,8.28,0,0,0-1.55,2.9v10a15.55,15.55,0,0,0,2.73,4.18,13.78,13.78,0,0,0,3.91,3A9.88,9.88,0,0,0,539.08,95.74Z" transform="translate(-0.24 -6.62)"/><path class="cls-2" d="M144.68,85c2.51-6,5-12,7.62-18.13C152.41,75.27,151.69,85.12,144.68,85Z" transform="translate(-0.24 -6.62)"/><path d="M219.57,141.37a8,8,0,0,1-3.64-.85,9.71,9.71,0,0,1-2.91-2.26,10.46,10.46,0,0,1-1.9-3.18,10,10,0,0,1-.67-3.61,10.6,10.6,0,0,1,.65-3.68,10.17,10.17,0,0,1,1.87-3.16,9,9,0,0,1,2.85-2.19,8,8,0,0,1,3.59-.81,8.4,8.4,0,0,1,4.7,1.19,7.86,7.86,0,0,1,2.73,3.06l-1.15.69a6.3,6.3,0,0,0-2.62-2.79,7.84,7.84,0,0,0-3.69-.86,6.59,6.59,0,0,0-3.12.73,7.49,7.49,0,0,0-2.39,1.94,8.69,8.69,0,0,0-1.5,2.76,9.64,9.64,0,0,0-.53,3.15,8.87,8.87,0,0,0,.61,3.26,9,9,0,0,0,1.67,2.74,7.62,7.62,0,0,0,2.49,1.89,6.92,6.92,0,0,0,3,.69,7.29,7.29,0,0,0,3.56-.92,10.75,10.75,0,0,0,3.21-2.89v1.56A8.65,8.65,0,0,1,219.57,141.37Zm6.56-8.47h-4.42v-1.13h5.62v9.46h-1.2Z" transform="translate(-0.24 -6.62)"/><path d="M237,141.51a6.72,6.72,0,0,1-2.78-.58,6.5,6.5,0,0,1-2.21-1.6,7.4,7.4,0,0,1-1.45-2.36,7.91,7.91,0,0,1,0-5.64A7.43,7.43,0,0,1,232,129a7,7,0,0,1,2.22-1.61,6.54,6.54,0,0,1,2.76-.58,6.41,6.41,0,0,1,2.74.58A7.18,7.18,0,0,1,242,129a7.48,7.48,0,0,1,1.48,2.35,7.91,7.91,0,0,1,0,5.64,7.45,7.45,0,0,1-1.47,2.36,6.71,6.71,0,0,1-5,2.18Zm-5.59-7.3a6.29,6.29,0,0,0,.75,3,5.84,5.84,0,0,0,2,2.19,5.16,5.16,0,0,0,5.6,0,6,6,0,0,0,2-2.24,6.43,6.43,0,0,0,.75-3.07,6.29,6.29,0,0,0-.75-3,6.06,6.06,0,0,0-2-2.23A5,5,0,0,0,237,128a5,5,0,0,0-2.8.84,6.45,6.45,0,0,0-2,2.24A6.37,6.37,0,0,0,231.42,134.21Z" transform="translate(-0.24 -6.62)"/><path d="M253.24,141.51a6.76,6.76,0,0,1-2.79-.58,6.46,6.46,0,0,1-2.2-1.6A7.4,7.4,0,0,1,246.8,137a7.77,7.77,0,0,1,0-5.64,7.43,7.43,0,0,1,1.46-2.35,7,7,0,0,1,2.22-1.61,6.54,6.54,0,0,1,2.76-.58,6.44,6.44,0,0,1,2.74.58A7.18,7.18,0,0,1,258.2,129a7.48,7.48,0,0,1,1.48,2.35,7.91,7.91,0,0,1,0,5.64,7.45,7.45,0,0,1-1.47,2.36,6.71,6.71,0,0,1-5,2.18Zm-5.59-7.3a6.29,6.29,0,0,0,.75,3,5.9,5.9,0,0,0,2,2.19,5.18,5.18,0,0,0,5.61,0,6.1,6.1,0,0,0,2-2.24,6.43,6.43,0,0,0,.75-3.07,6.29,6.29,0,0,0-.75-3,6.15,6.15,0,0,0-2-2.23,5,5,0,0,0-2.78-.83,4.93,4.93,0,0,0-2.8.84,6.33,6.33,0,0,0-2.79,5.35Z" transform="translate(-0.24 -6.62)"/><path d="M262.5,134.16a8,8,0,0,1,.85-3.66,7.25,7.25,0,0,1,2.33-2.69,5.8,5.8,0,0,1,3.37-1,5.69,5.69,0,0,1,3.31,1,7.67,7.67,0,0,1,2.26,2.36v-8.91H276v18.2a.73.73,0,0,0,.15.5.64.64,0,0,0,.42.19v1.12a2.59,2.59,0,0,1-.65,0,1.37,1.37,0,0,1-.83-.47,1.27,1.27,0,0,1-.32-.82v-1.59a6.61,6.61,0,0,1-2.36,2.28,6.11,6.11,0,0,1-3,.85,6.2,6.2,0,0,1-2.75-.62,6.91,6.91,0,0,1-2.17-1.65,7.64,7.64,0,0,1-1.43-2.35A7.43,7.43,0,0,1,262.5,134.16Zm12.12,2.29v-4.66a5.35,5.35,0,0,0-1.23-1.9,6.75,6.75,0,0,0-1.92-1.37,5,5,0,0,0-2.11-.5,4.74,4.74,0,0,0-2.24.52,5.53,5.53,0,0,0-1.73,1.39,6.41,6.41,0,0,0-1.11,2,7,7,0,0,0-.38,2.28,6.19,6.19,0,0,0,.44,2.3,6.45,6.45,0,0,0,1.22,2,5.48,5.48,0,0,0,1.81,1.33,5.19,5.19,0,0,0,2.23.48,4.68,4.68,0,0,0,1.58-.3,6.7,6.7,0,0,0,1.59-.83,5.27,5.27,0,0,0,1.26-1.23A3,3,0,0,0,274.62,136.45Z" transform="translate(-0.24 -6.62)"/><path d="M292.93,141.51a5.71,5.71,0,0,1-2.67-.62,6.59,6.59,0,0,1-2.06-1.65,7.78,7.78,0,0,1-1.33-2.35,8.07,8.07,0,0,1-.46-2.73,7.43,7.43,0,0,1,.53-2.81,7.68,7.68,0,0,1,1.45-2.35,6.9,6.9,0,0,1,2.17-1.61,6.07,6.07,0,0,1,2.67-.6,5.9,5.9,0,0,1,3.13.88,6.82,6.82,0,0,1,2.27,2.23V127h1.26v20.07h-1.37v-8.9C297,140.39,295.16,141.51,292.93,141.51Zm.36-1.24a4.87,4.87,0,0,0,2.2-.5,6.19,6.19,0,0,0,1.76-1.33,8.35,8.35,0,0,0,1.27-1.82V132a3.44,3.44,0,0,0-.6-1.5,6.09,6.09,0,0,0-2.8-2.14,4.74,4.74,0,0,0-1.67-.31,5,5,0,0,0-2.29.53,5.94,5.94,0,0,0-1.78,1.41,6.56,6.56,0,0,0-1.17,2,6.51,6.51,0,0,0,.31,5.25,5.94,5.94,0,0,0,1.94,2.24A4.91,4.91,0,0,0,293.29,140.27Z" transform="translate(-0.24 -6.62)"/><path d="M304,135.21V127h1.37v8a7.06,7.06,0,0,0,.89,3.95,3.06,3.06,0,0,0,2.7,1.3,5.36,5.36,0,0,0,2.32-.53,6.3,6.3,0,0,0,2-1.5,6.19,6.19,0,0,0,1.26-2.26v-9h1.37v12.42a.73.73,0,0,0,.15.5.64.64,0,0,0,.43.19v1.12l-.43,0a1,1,0,0,1-.26,0,1.14,1.14,0,0,1-.77-.4,1.32,1.32,0,0,1-.33-.83l0-2.13a6.85,6.85,0,0,1-2.57,2.66,6.72,6.72,0,0,1-3.52,1,3.93,3.93,0,0,1-3.4-1.59A8.06,8.06,0,0,1,304,135.21Z" transform="translate(-0.24 -6.62)"/><path d="M319.08,137.13a3.43,3.43,0,0,1,.77-2.22,5,5,0,0,1,2.11-1.48,8.46,8.46,0,0,1,3.1-.53,13.81,13.81,0,0,1,2.27.19,12.29,12.29,0,0,1,2.11.52v-1.34a4.29,4.29,0,0,0-1.14-3.13,4.12,4.12,0,0,0-3.13-1.18,6.22,6.22,0,0,0-2.22.44,12.09,12.09,0,0,0-2.36,1.26l-.58-1a13.07,13.07,0,0,1,2.7-1.42,7.67,7.67,0,0,1,2.59-.47,5.39,5.39,0,0,1,4,1.5,5.55,5.55,0,0,1,1.48,4.09v7a.73.73,0,0,0,.15.5.68.68,0,0,0,.46.19v1.12l-.42,0h-.27a1.25,1.25,0,0,1-.81-.44,1.39,1.39,0,0,1-.31-.79V138.9a6.72,6.72,0,0,1-2.54,1.92,7.87,7.87,0,0,1-3.25.69,5.12,5.12,0,0,1-2.42-.58,4.23,4.23,0,0,1-1.7-1.57A4.16,4.16,0,0,1,319.08,137.13Zm9.81,1.18a3.5,3.5,0,0,0,.42-.68,1.6,1.6,0,0,0,.13-.61v-2.34a10.93,10.93,0,0,0-2.05-.58,13.33,13.33,0,0,0-2.2-.19,6.29,6.29,0,0,0-3.46.85,2.59,2.59,0,0,0-1.33,2.29,3.16,3.16,0,0,0,.46,1.67,3.5,3.5,0,0,0,1.3,1.23,4.06,4.06,0,0,0,1.94.46,6.8,6.8,0,0,0,2.83-.59A4.59,4.59,0,0,0,328.89,138.31Z" transform="translate(-0.24 -6.62)"/><path d="M335.09,121.22h1.4v17.29a1.77,1.77,0,0,0,.41,1.36,1.52,1.52,0,0,0,1.07.37,4.7,4.7,0,0,0,.9-.08,3.48,3.48,0,0,0,.82-.22l.28,1.13a8.56,8.56,0,0,1-1.15.3,6.32,6.32,0,0,1-1.18.14,2.48,2.48,0,0,1-1.85-.71,2.53,2.53,0,0,1-.7-1.88Z" transform="translate(-0.24 -6.62)"/><path d="M342.08,123.74v-2.52h1.37v2.52Zm0,17.49V127h1.37v14.25Z" transform="translate(-0.24 -6.62)"/><path d="M354.11,140.66a4.83,4.83,0,0,0-.55.27,5.29,5.29,0,0,1-2.44.58,3.38,3.38,0,0,1-1.38-.29,2.5,2.5,0,0,1-1-.87,2.56,2.56,0,0,1-.38-1.41V128.13h-2V127h2v-4.87h1.37V127H353v1.13H349.7v10.49a1.6,1.6,0,0,0,.57,1.2,2,2,0,0,0,1.21.4,3.55,3.55,0,0,0,1.48-.29,6.45,6.45,0,0,0,.74-.37Z" transform="translate(-0.24 -6.62)"/><path d="M357.48,146.06c.3,0,.56,0,.79,0a1,1,0,0,0,.5-.12,1.15,1.15,0,0,0,.51-.43,7.46,7.46,0,0,0,.7-1.34q.43-1,1.23-2.94L354.85,127h1.46L362,139.79,367.19,127h1.4l-7.82,18.73a2.74,2.74,0,0,1-.45.78,2.11,2.11,0,0,1-.7.55,2.57,2.57,0,0,1-1,.23l-.53,0c-.18,0-.39,0-.63,0Z" transform="translate(-0.24 -6.62)"/><path d="M369.66,143.45l.41-2.16h-.5V138.9H371v2.39l-.57,2.16Z" transform="translate(-0.24 -6.62)"/><path d="M390.9,141.37a8,8,0,0,1-3.65-.85,9.67,9.67,0,0,1-2.9-2.26,10.49,10.49,0,0,1-1.91-3.18,10,10,0,0,1-.67-3.61,10.5,10.5,0,0,1,2.52-6.84,9.21,9.21,0,0,1,2.85-2.19,8,8,0,0,1,3.59-.81,8.43,8.43,0,0,1,4.71,1.19,7.91,7.91,0,0,1,2.72,3.06l-1.15.69a6.3,6.3,0,0,0-2.62-2.79,7.78,7.78,0,0,0-3.68-.86,6.63,6.63,0,0,0-3.13.73,7.45,7.45,0,0,0-2.38,1.94,8.92,8.92,0,0,0-1.51,2.76,9.63,9.63,0,0,0-.52,3.15,8.86,8.86,0,0,0,.6,3.26,9,9,0,0,0,1.67,2.74,7.77,7.77,0,0,0,2.5,1.89,6.87,6.87,0,0,0,3,.69,7.36,7.36,0,0,0,3.57-.92,10.61,10.61,0,0,0,3.2-2.89v1.56A8.65,8.65,0,0,1,390.9,141.37Zm6.55-8.47H393v-1.13h5.62v9.46h-1.21Z" transform="translate(-0.24 -6.62)"/><path d="M408.33,141.51a6.75,6.75,0,0,1-2.78-.58,6.6,6.6,0,0,1-2.21-1.6,7.69,7.69,0,0,1,0-10.35,7,7,0,0,1,2.22-1.61,6.52,6.52,0,0,1,2.75-.58,6.41,6.41,0,0,1,2.74.58A7.35,7.35,0,0,1,413.3,129a7.45,7.45,0,0,1,1.47,2.35,7.77,7.77,0,0,1,0,5.64,7.26,7.26,0,0,1-1.46,2.36,6.71,6.71,0,0,1-5,2.18Zm-5.59-7.3a6.29,6.29,0,0,0,.75,3,6,6,0,0,0,2,2.19,5.18,5.18,0,0,0,5.61,0,6,6,0,0,0,2-2.24,6.32,6.32,0,0,0,.76-3.07,6.19,6.19,0,0,0-.76-3,6,6,0,0,0-2-2.23,5,5,0,0,0-2.79-.83,4.92,4.92,0,0,0-2.79.84,6.37,6.37,0,0,0-2.8,5.35Z" transform="translate(-0.24 -6.62)"/><path d="M424.56,141.51a6.75,6.75,0,0,1-2.78-.58,6.5,6.5,0,0,1-2.21-1.6,7.69,7.69,0,0,1,0-10.35,7,7,0,0,1,2.22-1.61,6.49,6.49,0,0,1,2.75-.58,6.41,6.41,0,0,1,2.74.58,7.18,7.18,0,0,1,2.22,1.61,7.31,7.31,0,0,1,1.48,2.35,7.91,7.91,0,0,1,0,5.64,7.26,7.26,0,0,1-1.46,2.36,6.71,6.71,0,0,1-5,2.18Zm-5.59-7.3a6.29,6.29,0,0,0,.75,3,6,6,0,0,0,2,2.19,5.16,5.16,0,0,0,5.6,0,6,6,0,0,0,2-2.24,6.32,6.32,0,0,0,.76-3.07,6.19,6.19,0,0,0-.76-3,6.06,6.06,0,0,0-2-2.23,5,5,0,0,0-2.78-.83,4.92,4.92,0,0,0-2.79.84,6.37,6.37,0,0,0-2.8,5.35Z" transform="translate(-0.24 -6.62)"/><path d="M433.83,134.16a7.89,7.89,0,0,1,.85-3.66,7.07,7.07,0,0,1,2.33-2.69,5.78,5.78,0,0,1,3.37-1,5.68,5.68,0,0,1,3.3,1,7.56,7.56,0,0,1,2.26,2.36v-8.91h1.37v18.2a.73.73,0,0,0,.15.5.66.66,0,0,0,.43.19v1.12a2.65,2.65,0,0,1-.66,0,1.35,1.35,0,0,1-.82-.47,1.23,1.23,0,0,1-.33-.82v-1.59a6.61,6.61,0,0,1-2.36,2.28,6.08,6.08,0,0,1-3,.85,6.16,6.16,0,0,1-2.74-.62,7,7,0,0,1-2.18-1.65,7.84,7.84,0,0,1-1.43-2.35A7.64,7.64,0,0,1,433.83,134.16Zm12.11,2.29v-4.66a5.09,5.09,0,0,0-1.23-1.9,6.75,6.75,0,0,0-1.92-1.37,5,5,0,0,0-2.11-.5,4.7,4.7,0,0,0-2.23.52,5.42,5.42,0,0,0-1.73,1.39,6,6,0,0,0-1.11,2,6.74,6.74,0,0,0-.38,2.28,6.18,6.18,0,0,0,.43,2.3,6.65,6.65,0,0,0,1.22,2,5.58,5.58,0,0,0,1.81,1.33,5.24,5.24,0,0,0,2.24.48,4.67,4.67,0,0,0,1.57-.3,6.7,6.7,0,0,0,1.59-.83,4.92,4.92,0,0,0,1.26-1.23A2.93,2.93,0,0,0,445.94,136.45Z" transform="translate(-0.24 -6.62)"/><path d="M463.21,141.51a8.56,8.56,0,0,1-3.15-.58,6.93,6.93,0,0,1-2.55-1.75l.63-1a8,8,0,0,0,2.39,1.63,6.66,6.66,0,0,0,2.63.5,5.24,5.24,0,0,0,3-.76,2.43,2.43,0,0,0,1.14-2.13,1.86,1.86,0,0,0-.54-1.43,3.8,3.8,0,0,0-1.53-.82c-.67-.21-1.48-.43-2.43-.67a20.34,20.34,0,0,1-2.45-.79,3.38,3.38,0,0,1-1.49-1.07,2.84,2.84,0,0,1-.5-1.77,3.73,3.73,0,0,1,.7-2.31,4.2,4.2,0,0,1,1.89-1.36,7.48,7.48,0,0,1,2.65-.45,7.32,7.32,0,0,1,2.92.54,4.54,4.54,0,0,1,1.9,1.46l-.74.87a4.05,4.05,0,0,0-1.78-1.3,6.66,6.66,0,0,0-2.41-.42,6.24,6.24,0,0,0-1.86.27,3,3,0,0,0-1.42.89,2.46,2.46,0,0,0-.53,1.65,1.89,1.89,0,0,0,.4,1.28,2.71,2.71,0,0,0,1.19.75c.53.19,1.19.4,2,.62a27.44,27.44,0,0,1,2.88.84,4.65,4.65,0,0,1,1.86,1.14,2.71,2.71,0,0,1,.66,2,3.63,3.63,0,0,1-1.48,3.06A6.36,6.36,0,0,1,463.21,141.51Z" transform="translate(-0.24 -6.62)"/><path d="M477.9,141.51a6.68,6.68,0,0,1-2.79-.59,7,7,0,0,1-2.24-1.61,7.7,7.7,0,0,1-2-5.23,7.46,7.46,0,0,1,.9-3.66,7.27,7.27,0,0,1,2.5-2.64,6.61,6.61,0,0,1,3.56-1,6.41,6.41,0,0,1,3.59,1,7.43,7.43,0,0,1,3.4,6.28v.33a1.87,1.87,0,0,1,0,.27h-12.5a6.34,6.34,0,0,0,.9,2.92,6,6,0,0,0,2,2.06,5.19,5.19,0,0,0,2.73.75,5.49,5.49,0,0,0,2.8-.77,4.27,4.27,0,0,0,1.83-2l1.21.33a5,5,0,0,1-1.3,1.81,6.62,6.62,0,0,1-2.09,1.24A7,7,0,0,1,477.9,141.51Zm-5.67-7.9H483.5a6.62,6.62,0,0,0-.88-3,5.64,5.64,0,0,0-2-2,5.32,5.32,0,0,0-2.75-.74,5.23,5.23,0,0,0-2.74.74,5.75,5.75,0,0,0-2,2A6.49,6.49,0,0,0,472.23,133.61Z" transform="translate(-0.24 -6.62)"/><path d="M494.57,128.21a5.76,5.76,0,0,0-3.36,1.14,5.62,5.62,0,0,0-2,3v8.91h-1.37V127h1.31v3.49a6.91,6.91,0,0,1,2-2.46,5,5,0,0,1,2.6-1.08l.5,0h.35Z" transform="translate(-0.24 -6.62)"/><path d="M501.56,141.23,495.61,127h1.46l5.23,12.78L507.56,127h1.38L503,141.23Z" transform="translate(-0.24 -6.62)"/><path d="M511.65,123.74v-2.52H513v2.52Zm0,17.49V127H513v14.25Z" transform="translate(-0.24 -6.62)"/><path d="M523.38,141.51a6.62,6.62,0,0,1-2.77-.59,7.08,7.08,0,0,1-2.25-1.61,7.81,7.81,0,0,1-1.49-2.36,7.62,7.62,0,0,1-.53-2.87,7.52,7.52,0,0,1,.9-3.69,7,7,0,0,1,2.5-2.62,6.67,6.67,0,0,1,3.61-1,6.47,6.47,0,0,1,3.43.89A5.58,5.58,0,0,1,529,130.1l-1.34.44a4.58,4.58,0,0,0-1.8-1.85,5,5,0,0,0-2.56-.67,5.17,5.17,0,0,0-2.82.79,5.79,5.79,0,0,0-2,2.17,6.38,6.38,0,0,0-.75,3.1,6.45,6.45,0,0,0,.76,3.11,6.27,6.27,0,0,0,2,2.25,5,5,0,0,0,2.81.83,5.21,5.21,0,0,0,1.93-.37,5.43,5.43,0,0,0,1.64-1,2.8,2.8,0,0,0,.92-1.29l1.35.38a4.27,4.27,0,0,1-1.24,1.8,6.54,6.54,0,0,1-2,1.23A6.91,6.91,0,0,1,523.38,141.51Z" transform="translate(-0.24 -6.62)"/><path d="M538.18,141.51a6.68,6.68,0,0,1-2.79-.59,6.93,6.93,0,0,1-2.24-1.61,7.7,7.7,0,0,1-2-5.23,7.46,7.46,0,0,1,.9-3.66,7.27,7.27,0,0,1,2.5-2.64,6.61,6.61,0,0,1,3.56-1,6.41,6.41,0,0,1,3.59,1,7.37,7.37,0,0,1,2.48,2.66,7.25,7.25,0,0,1,.92,3.62v.33a1,1,0,0,1,0,.27h-12.5a6.47,6.47,0,0,0,.91,2.92,6,6,0,0,0,2,2.06,5.19,5.19,0,0,0,2.73.75,5.43,5.43,0,0,0,2.79-.77,4.24,4.24,0,0,0,1.84-2l1.21.33a5,5,0,0,1-1.3,1.81,6.62,6.62,0,0,1-2.09,1.24A7,7,0,0,1,538.18,141.51Zm-5.67-7.9h11.27a6.62,6.62,0,0,0-.88-3,5.64,5.64,0,0,0-2-2,5.32,5.32,0,0,0-2.75-.74,5.23,5.23,0,0,0-2.74.74,5.75,5.75,0,0,0-2,2A6.49,6.49,0,0,0,532.51,133.61Z" transform="translate(-0.24 -6.62)"/><path d="M552.6,141.51a8.56,8.56,0,0,1-3.15-.58,6.93,6.93,0,0,1-2.55-1.75l.63-1a8,8,0,0,0,2.39,1.63,6.66,6.66,0,0,0,2.63.5,5.24,5.24,0,0,0,3-.76,2.43,2.43,0,0,0,1.14-2.13,1.89,1.89,0,0,0-.53-1.43,3.91,3.91,0,0,0-1.54-.82c-.67-.21-1.48-.43-2.43-.67a20.34,20.34,0,0,1-2.45-.79,3.38,3.38,0,0,1-1.49-1.07,2.84,2.84,0,0,1-.5-1.77,3.73,3.73,0,0,1,.7-2.31,4.2,4.2,0,0,1,1.89-1.36,7.48,7.48,0,0,1,2.65-.45,7.32,7.32,0,0,1,2.92.54,4.48,4.48,0,0,1,1.9,1.46l-.74.87a4.05,4.05,0,0,0-1.78-1.3,6.66,6.66,0,0,0-2.41-.42,6.24,6.24,0,0,0-1.86.27,3,3,0,0,0-1.42.89,2.46,2.46,0,0,0-.53,1.65,1.89,1.89,0,0,0,.4,1.28,2.71,2.71,0,0,0,1.19.75c.53.19,1.19.4,2,.62a27.44,27.44,0,0,1,2.88.84,4.77,4.77,0,0,1,1.87,1.14,2.75,2.75,0,0,1,.65,2,3.63,3.63,0,0,1-1.48,3.06A6.36,6.36,0,0,1,552.6,141.51Z" transform="translate(-0.24 -6.62)"/></svg>