<?xml version="1.0" encoding="utf-8"?>
<!-- Generator: Adobe Illustrator 23.0.3, SVG Export Plug-In . SVG Version: 6.00 Build 0)  -->
<svg version="1.1" id="Layer_1" xmlns="http://www.w3.org/2000/svg" xmlns:xlink="http://www.w3.org/1999/xlink" x="0px" y="0px"
	 viewBox="0 0 776 156.7" style="enable-background:new 0 0 776 156.7;" xml:space="preserve">
<style type="text/css">
	.st0{fill:#7D797A;}
	.st1{fill:#040404;}
	.st2{fill:#F9CD0C;}
</style>
<title>logo</title>
<g>
	<path d="M105.6,64.8c0.1,0.4,0.2,0.8,0.3,1.3c1.2,6,8.3,7.4,12.4,4.7c0.7-0.5,1.3-1.1,1.7-1.8c1-1.7,0.7-3.2-1-4.2
		c-1.7-0.9-3.5-1.7-5.3-2.3c-1.6-0.6-3.4-1-5.2-1.5l0.9-1.2c-0.2,0-0.4-0.1-0.4-0.1c-1.7,1.1-3.1,0.3-4.6-0.5
		c-2.8-1.3-5.3-3.1-7.4-5.4c-1.6-2-2.7-4.3-3.1-6.8c-0.2-0.7,0.2-1.5,0.2-2.2c0-1.3,0-2.5,0-3.9c0.2-0.3,0.4-0.7,0.6-1.1
		c2-7.3,7-11,14.2-11.9c5-0.6,10-0.5,14.7,1.5c5.9,2.4,8.7,7.2,9.5,13.3c0.2,1.5,0.2,2.9,0.3,4.6l-12.7-0.8
		c-0.1-0.7-0.2-1.4-0.2-2.1c-0.1-2.4-1.9-4.4-4.3-4.8c-2.5-0.5-5-0.2-7.3,0.9c-2.1,1-2.9,3.4-2,5.5c0.2,0.5,0.5,0.9,0.9,1.2
		c1.4,1.2,3,2.2,4.7,2.9c3.1,1.3,6.4,2.2,9.5,3.3c5.9,2,10.1,5.6,10.9,12c0.4,3.1-0.7,6-1.9,8.8c-2.4,5.3-6.7,8.1-12.2,9
		c-4.6,0.8-9.3,0.5-13.8-0.8c-3.8-1.2-7-3.4-8.7-7c-0.6-1.2-1.4-2.6-1.1-4.2c0.1-0.4-0.6-0.8-0.7-1.3c-0.5-1.6-1.1-3.2-0.7-4.9
		c0.1-0.3,0.4-0.7,0.6-0.7c3.7,0.1,7.4,0.3,11.1,0.5C105.5,64.7,105.5,64.7,105.6,64.8z"/>
	<path class="st0" d="M62.6,16.1c0,0,8.2,12,2.4,30c0,0-7.8,26,5,32.2c0,0-4.8-5-0.8-22C73.2,39.3,77.4,27.3,62.6,16.1z"/>
	<path class="st1" d="M71.3,26.5c0,0,21.1,9,1.7,26.1c0,0,20,10,2.6,25.8c0,0,20,8.8,19.4-17.6c0,0-4-6.6-8.4-7.6
		c0,0,16-9.8,2.8-24.6C83.7,26,77.4,25.3,71.3,26.5z"/>
	<path class="st2" d="M106.4,53.5c0,0-4.2,6.8-17.4,3.2c0,0-15.2-8.6-26.4-3.2c0,0,8.8-9.2,18.8-5S91.8,55.7,106.4,53.5z"/>
	<path d="M152.7,56.9c-6.6,16-13.3,31.9-20.2,47.7c-0.7,1.6-3.4,3.4-5.3,3.4c-20.4,0.2-40.8,0.2-61.2,0.2c-3.4,0-5-1.9-6-5
		c-6-20-12.2-40.1-18.4-60.1c-0.4-1.4-0.9-2.8-1.4-4.3c-5.6,0-10.9,0-16.3,0c-4.2,0-6.6-2-6.5-5.4c0.1-3.2,2.4-5.1,6.4-5.1
		c6.2,0,12.4,0,18.6,0c4.8,0,6,0.9,7.4,5.5C56.1,54,62.3,74.2,68.4,94.5c0.8,2.6,1.9,3.3,4.5,3.3c16.2-0.1,32.3,0,48.5-0.1
		c1.2,0,3-0.8,3.4-1.7c2.5-5.8,5-11.7,7.5-17.6c2-4.8,4-9.5,6.1-14.4c0.6-1.4,1.2-2.9,1.8-4.4h-2c0-0.7,0-1.4,0-2.1
		c0-4-5.6-6.4-9.8-7.7c0.9-0.5,2-0.8,3-0.8c5.4-0.1,10.8-0.1,16.2,0C152.3,49.2,154.5,52.6,152.7,56.9z"/>
	<path class="st2" d="M139.4,131.4c-0.1,5.1-4.4,9.2-9.5,9.1c-4.9-0.1-8.9-4-9.1-9c0.1-5.1,4.4-9.2,9.5-9.1
		C135.2,122.5,139.2,126.5,139.4,131.4z"/>
	<path class="st2" d="M51.8,131.5c-0.1-5.1,4-9.3,9-9.3c0.1,0,0.2,0,0.3,0c5,0.1,9.1,4.2,9.2,9.2c0,5.1-4.1,9.3-9.2,9.3
		c-0.1,0-0.1,0-0.2,0c-5,0.1-9-3.9-9.1-8.9C51.8,131.7,51.8,131.6,51.8,131.5z"/>
	<path class="st1" d="M132.3,78.4c2-4.8,4-9.5,6.1-14.4C138.5,70.6,137.9,78.5,132.3,78.4z"/>
</g>
<g>
	<path d="M214.5,68.6c0.1,2.3-0.6,4.6-2,6.5c-1.4,1.9-3.2,3.3-5.3,4.2c-2.3,1-4.8,1.5-7.3,1.5h-22.6V33.5h24.4
		c2.1,0,4.1,0.6,5.8,1.8c1.6,1.2,2.9,2.7,3.7,4.5c0.9,1.8,1.3,3.8,1.3,5.7c0,2.3-0.6,4.5-1.8,6.5c-1.2,2-2.9,3.6-5,4.5
		c2.6,0.7,4.8,2.2,6.4,4.4C213.7,63.2,214.5,65.9,214.5,68.6z M184.7,40v13.9h13.7c1.2,0,2.3-0.3,3.3-0.9c1-0.6,1.8-1.5,2.3-2.5
		c0.6-1.1,0.9-2.3,0.9-3.6c0-1.2-0.2-2.5-0.8-3.6c-0.5-1-1.2-1.8-2.2-2.5c-0.9-0.6-2-0.9-3.2-0.9L184.7,40z M206.8,67.2
		c0-1.3-0.3-2.5-0.8-3.6c-0.5-1.1-1.3-2-2.3-2.7c-1-0.7-2.2-1.1-3.4-1h-15.6v14.4h15.1c1.3,0,2.5-0.3,3.6-0.9c1-0.6,1.9-1.5,2.5-2.6
		C206.5,69.7,206.8,68.5,206.8,67.2z"/>
	<g>
		<path d="M237.1,81.5c-2.5,0-5-0.5-7.4-1.4c-4.3-1.8-7.7-5.3-9.4-9.6c-2-5.1-1.7-10.9,1-15.8c1.5-2.7,3.7-4.9,6.3-6.5
			c2.9-1.7,6.2-2.6,9.5-2.5c6.5-0.2,12.5,3.3,15.6,9c1.5,2.6,2.2,5.6,2.2,8.6c0,0.5,0,1-0.1,1.5c-0.1,0.5-0.1,0.8-0.1,1.2h-27.9
			c0.2,3.7,2.3,7.1,5.5,8.8c1.5,0.8,3.3,1.3,5,1.3c1.9,0,3.9-0.5,5.6-1.5c1.6-0.8,2.9-2.2,3.6-3.9l6.3,1.8c-0.8,1.7-2,3.3-3.4,4.5
			c-1.6,1.4-3.4,2.5-5.4,3.2C241.7,81.1,239.4,81.5,237.1,81.5z M226.7,61.1h21c-0.1-1.9-0.7-3.6-1.7-5.2c-0.9-1.5-2.2-2.7-3.7-3.5
			c-1.6-0.9-3.3-1.3-5.1-1.3c-1.8,0-3.5,0.4-5,1.3c-1.5,0.8-2.8,2.1-3.8,3.5C227.3,57.4,226.7,59.2,226.7,61.1z"/>
	</g>
	<g>
		<path d="M273.4,81.5c-2.8,0-5.7-0.5-8.3-1.4c-2.5-0.9-4.8-2.4-6.7-4.3l2.7-4.9c1.8,1.6,3.8,2.9,6,3.9c1.9,0.8,4,1.2,6,1.2
			c1.7,0.1,3.5-0.3,5-1.1c1.2-0.7,2-2,1.9-3.4c0.1-0.9-0.3-1.8-1-2.4c-0.9-0.6-1.9-1.1-2.9-1.4c-1.3-0.4-2.8-0.8-4.6-1.3
			c-2.1-0.6-4.2-1.4-6.3-2.3c-1.5-0.7-2.8-1.7-3.8-3c-0.9-1.3-1.3-2.9-1.3-4.5c-0.1-2.1,0.5-4.1,1.7-5.7c1.2-1.6,2.9-2.9,4.8-3.6
			c2.3-0.9,4.7-1.4,7.2-1.4c2.4,0,4.8,0.4,7,1.2c2.1,0.8,4.1,2,5.7,3.6l-3.1,4.9c-1.4-1.3-3-2.4-4.8-3.1c-1.7-0.7-3.4-1-5.2-1
			c-1,0-2.1,0.1-3.1,0.4c-0.9,0.2-1.8,0.7-2.4,1.4c-0.7,0.7-1,1.7-1,2.7c0,0.8,0.3,1.6,0.8,2.2c0.7,0.7,1.5,1.2,2.4,1.5
			c1.1,0.4,2.4,0.8,3.9,1.3c2.7,0.8,5,1.6,6.9,2.3c1.7,0.6,3.2,1.6,4.4,3c1.1,1.4,1.7,3.2,1.6,5c0.1,3.1-1.3,6-3.8,7.8
			C280.9,80.5,277.5,81.5,273.4,81.5z"/>
	</g>
	<g>
		<path d="M313,79.1c-0.6,0.3-1.4,0.6-2.3,1c-1,0.4-2.1,0.7-3.2,0.9c-1.2,0.3-2.4,0.4-3.6,0.4c-1.4,0-2.9-0.3-4.2-0.8
			c-1.3-0.5-2.4-1.4-3.1-2.5c-0.8-1.4-1.2-2.9-1.2-4.5V52h-4.6v-5.8h4.6V34.8h7.3v11.5h7.6v5.7h-7.6v19.3c0,1,0.4,2,1.2,2.7
			c0.7,0.6,1.6,0.9,2.6,0.9c1,0,2-0.2,2.9-0.5c0.9-0.4,1.6-0.6,2.1-0.9L313,79.1z"/>
	</g>
	<g>
		<path d="M363.5,44.6c-0.6-0.6-1.2-1.1-1.9-1.6c-1-0.6-2-1.1-3-1.6c-1.2-0.5-2.5-0.9-3.7-1.2c-1.4-0.3-2.7-0.5-4.1-0.5
			c-3.1,0-5.4,0.6-6.9,1.7c-1.5,1.1-2.3,2.9-2.3,4.8c-0.1,1.3,0.4,2.6,1.3,3.5c1.1,1,2.4,1.8,3.9,2.2c1.7,0.6,3.9,1.2,6.5,1.9
			c2.9,0.6,5.6,1.5,8.3,2.7c2.1,0.9,4,2.3,5.4,4.2c1.3,2,2,4.4,1.9,6.8c0.1,2.1-0.4,4.3-1.3,6.2c-0.9,1.7-2.1,3.2-3.7,4.2
			c-1.7,1.1-3.6,1.9-5.5,2.4c-2.2,0.5-4.5,0.8-6.7,0.8c-2.4,0-4.7-0.2-7-0.7c-2.3-0.5-4.5-1.2-6.7-2.2c-2.1-0.9-4-2.1-5.8-3.5
			l3.4-6.4c0.8,0.7,1.6,1.4,2.5,1.9c1.2,0.7,2.5,1.4,3.8,1.9c1.5,0.6,3.1,1.2,4.7,1.6c1.7,0.4,3.5,0.6,5.2,0.6c3,0,5.3-0.5,6.8-1.6
			c1.5-1,2.4-2.7,2.4-4.5c0.1-1.4-0.5-2.8-1.5-3.8c-1.3-1.1-2.8-1.9-4.5-2.4c-1.9-0.7-4.3-1.3-7-2c-2.7-0.7-5.3-1.6-7.8-2.7
			c-1.9-0.8-3.5-2.2-4.7-3.9c-1.1-1.8-1.7-3.9-1.6-6c-0.1-2.8,0.7-5.5,2.3-7.9c1.6-2.2,3.7-3.8,6.2-4.8c2.8-1.1,5.8-1.7,8.8-1.6
			c2,0,4.1,0.2,6.1,0.7c1.8,0.4,3.7,1,5.4,1.8c1.6,0.8,3.1,1.7,4.6,2.7L363.5,44.6z"/>
	</g>
	<g>
		<path d="M406.4,80.8h-7.3V61.5c0-3.1-0.6-5.5-1.7-7c-1.1-1.5-3-2.4-4.9-2.3c-1.4,0-2.8,0.4-4,1c-1.4,0.7-2.6,1.7-3.7,2.9
			c-1.1,1.2-1.9,2.6-2.3,4.2v20.5h-7.3V32.1h7.3v21.1c2.6-4.7,7.6-7.5,12.9-7.6c1.9-0.1,3.7,0.3,5.4,1.1c1.4,0.7,2.5,1.8,3.4,3.1
			c0.9,1.4,1.4,2.9,1.7,4.5c0.3,1.8,0.5,3.6,0.5,5.4L406.4,80.8z"/>
	</g>
	<g>
		<path d="M430.6,81.5c-2.5,0-5.1-0.4-7.4-1.4c-2.1-0.9-4-2.3-5.6-3.9c-1.6-1.7-2.8-3.6-3.6-5.7c-0.9-2.2-1.3-4.5-1.3-6.8
			c0-2.3,0.4-4.7,1.3-6.9c0.8-2.1,2-4.1,3.6-5.7c1.6-1.7,3.5-3,5.7-3.9c4.7-1.9,10-1.9,14.7,0c2.1,0.9,4.1,2.2,5.7,3.9
			c1.6,1.6,2.8,3.6,3.6,5.7c0.8,2.2,1.3,4.5,1.3,6.9c0,2.3-0.4,4.7-1.3,6.8c-0.8,2.1-2.1,4-3.6,5.7c-1.6,1.7-3.5,3-5.7,3.9
			C435.7,81,433.1,81.5,430.6,81.5z M420.2,63.6c0,2.1,0.4,4.1,1.4,5.9c0.9,1.7,2.2,3.1,3.7,4.1c1.6,1,3.4,1.5,5.3,1.5
			c1.9,0,3.7-0.5,5.2-1.6c1.6-1.1,2.9-2.5,3.8-4.2c1.9-3.7,1.9-8.1,0-11.8c-0.9-1.7-2.2-3.1-3.8-4.2c-1.6-1-3.4-1.5-5.2-1.5
			c-1.9,0-3.7,0.5-5.3,1.6c-1.6,1.1-2.9,2.5-3.7,4.2C420.7,59.6,420.2,61.6,420.2,63.6z"/>
	</g>
	<g>
		<path d="M474.9,81.5c-2.6,0.1-5.2-0.6-7.4-2c-2.1-1.3-3.8-3-5.1-5.2V95h-7.3V46.3h6.5v6.3c1.3-2,3.1-3.8,5.2-5
			c2.2-1.2,4.6-1.9,7.1-1.8c2.3,0,4.5,0.5,6.6,1.4c2,0.9,3.7,2.2,5.2,3.9c3,3.4,4.7,7.9,4.7,12.5c0,3.1-0.6,6.2-2,9
			c-1.2,2.6-3.1,4.9-5.5,6.5C480.5,80.7,477.7,81.5,474.9,81.5z M472.5,75.2c1.5,0,2.9-0.3,4.2-1c1.3-0.6,2.4-1.5,3.3-2.6
			c0.9-1.1,1.6-2.4,2.1-3.7c0.5-1.4,0.7-2.9,0.7-4.3c0-1.5-0.3-3.1-0.8-4.5c-0.5-1.4-1.3-2.6-2.3-3.7c-1-1-2.2-1.9-3.5-2.4
			c-1.4-0.6-2.8-0.9-4.3-0.9c-1,0-2,0.2-2.9,0.5c-1,0.3-2,0.8-2.9,1.4c-0.9,0.6-1.7,1.3-2.3,2.2c-0.6,0.8-1.1,1.7-1.4,2.6v9
			c0.6,1.4,1.4,2.7,2.5,3.8c1,1.1,2.2,2,3.5,2.7C469.7,74.9,471.1,75.2,472.5,75.2L472.5,75.2z"/>
	</g>
	<path d="M184.8,118.7c-1.3,0-2.5-0.3-3.6-0.9c-1.1-0.6-2.1-1.3-2.9-2.3c-0.8-0.9-1.5-2-1.9-3.2c-0.4-1.2-0.7-2.4-0.7-3.6
		c0-1.3,0.2-2.5,0.6-3.7c0.4-1.2,1.1-2.2,1.9-3.2c0.8-0.9,1.8-1.7,2.9-2.2c1.1-0.5,2.3-0.8,3.6-0.8c1.6-0.1,3.3,0.3,4.7,1.2
		c1.2,0.8,2.1,1.8,2.7,3.1l-1.1,0.7c-0.6-1.2-1.5-2.2-2.6-2.8c-1.1-0.6-2.4-0.9-3.7-0.9c-1.1,0-2.2,0.2-3.1,0.7
		c-0.9,0.5-1.7,1.1-2.4,1.9c-0.7,0.8-1.2,1.8-1.5,2.8c-0.4,1-0.5,2.1-0.5,3.1c0,1.1,0.2,2.2,0.6,3.3c0.4,1,1,1.9,1.7,2.7
		c0.7,0.8,1.5,1.4,2.5,1.9c0.9,0.5,2,0.7,3,0.7c1.2,0,2.5-0.3,3.6-0.9c1.3-0.7,2.3-1.7,3.2-2.9v1.6
		C190.1,117.3,187.5,118.6,184.8,118.7z M191.4,110.2H187v-1.1h5.6v9.5h-1.2V110.2z"/>
	<path d="M202.3,118.8c-1,0-1.9-0.2-2.8-0.6c-0.8-0.4-1.6-0.9-2.2-1.6c-0.6-0.7-1.1-1.5-1.4-2.4c-0.7-1.8-0.7-3.8,0-5.6
		c0.3-0.9,0.8-1.6,1.4-2.3c0.6-0.7,1.4-1.2,2.2-1.6c0.9-0.4,1.8-0.6,2.8-0.6c0.9,0,1.9,0.2,2.7,0.6c0.9,0.4,1.6,0.9,2.3,1.6
		c0.6,0.7,1.1,1.5,1.5,2.4c0.7,1.8,0.7,3.8,0,5.6c-0.3,0.9-0.8,1.7-1.5,2.4C206,118.1,204.2,118.9,202.3,118.8L202.3,118.8z
		 M196.7,111.5c0,1,0.3,2.1,0.8,3c0.5,0.9,1.2,1.6,2,2.2c1.7,1.1,3.9,1.1,5.6,0c0.8-0.6,1.5-1.3,2-2.2c0.5-0.9,0.8-2,0.8-3.1
		c0-1-0.3-2.1-0.8-3c-0.5-0.9-1.2-1.7-2-2.2c-0.8-0.6-1.8-0.9-2.8-0.9c-1,0-2,0.3-2.8,0.8c-0.8,0.6-1.5,1.3-2,2.2
		C197,109.4,196.7,110.4,196.7,111.5L196.7,111.5z"/>
	<path d="M218.5,118.8c-1,0-1.9-0.2-2.8-0.6c-0.8-0.4-1.6-0.9-2.2-1.6c-0.6-0.7-1.1-1.5-1.5-2.3c-0.7-1.8-0.7-3.8,0-5.6
		c0.3-0.9,0.8-1.7,1.5-2.4c0.6-0.7,1.4-1.2,2.2-1.6c0.9-0.4,1.8-0.6,2.8-0.6c0.9,0,1.9,0.2,2.7,0.6c0.8,0.4,1.6,0.9,2.2,1.6
		c0.6,0.7,1.1,1.5,1.5,2.4c0.7,1.8,0.7,3.8,0,5.6c-0.3,0.9-0.8,1.7-1.5,2.4C222.2,118.1,220.4,118.9,218.5,118.8L218.5,118.8z
		 M212.9,111.5c0,1,0.3,2.1,0.8,3c0.5,0.9,1.2,1.6,2,2.2c1.7,1.1,3.9,1.1,5.6,0c0.8-0.6,1.5-1.3,2-2.2c0.5-0.9,0.8-2,0.8-3.1
		c0-1-0.3-2.1-0.8-3c-0.5-0.9-1.2-1.7-2-2.2c-0.8-0.5-1.8-0.8-2.8-0.8c-1,0-2,0.3-2.8,0.8C213.9,107.4,212.9,109.4,212.9,111.5
		L212.9,111.5z"/>
	<path d="M227.8,111.5c0-1.3,0.3-2.5,0.9-3.7c0.5-1.1,1.3-2,2.3-2.7c1-0.7,2.2-1,3.4-1c1.2,0,2.3,0.3,3.3,1c0.9,0.6,1.7,1.4,2.3,2.4
		v-8.9h1.4v18.2c0,0.2,0,0.4,0.1,0.5c0.1,0.1,0.3,0.2,0.4,0.2v1.1c-0.2,0-0.4,0-0.6,0c-0.3-0.1-0.6-0.2-0.8-0.5
		c-0.2-0.2-0.3-0.5-0.3-0.8v-1.6c-0.6,0.9-1.4,1.7-2.4,2.3c-0.9,0.5-1.9,0.8-3,0.9c-1,0-1.9-0.2-2.8-0.6c-0.8-0.4-1.6-1-2.2-1.6
		c-0.6-0.7-1.1-1.5-1.4-2.4C228,113.4,227.8,112.4,227.8,111.5z M239.9,113.8v-4.7c-0.3-0.7-0.7-1.4-1.2-1.9c-0.6-0.6-1.2-1-1.9-1.4
		c-0.7-0.3-1.4-0.5-2.1-0.5c-0.8,0-1.5,0.2-2.2,0.5c-0.7,0.3-1.3,0.8-1.7,1.4c-0.5,0.6-0.9,1.3-1.1,2c-0.3,0.7-0.4,1.5-0.4,2.3
		c0,0.8,0.1,1.6,0.4,2.3c0.3,0.7,0.7,1.4,1.2,2c0.5,0.6,1.1,1,1.8,1.3c0.7,0.3,1.5,0.5,2.2,0.5c0.5,0,1.1-0.1,1.6-0.3
		c0.6-0.2,1.1-0.5,1.6-0.8c0.5-0.3,0.9-0.8,1.3-1.2C239.6,114.8,239.8,114.3,239.9,113.8z"/>
	<path d="M258.2,118.8c-0.9,0-1.8-0.2-2.7-0.6c-0.8-0.4-1.5-1-2.1-1.6c-0.6-0.7-1-1.5-1.3-2.4c-0.3-0.9-0.5-1.8-0.5-2.7
		c0-1,0.2-1.9,0.5-2.8c0.3-0.9,0.8-1.7,1.5-2.4c0.6-0.7,1.3-1.2,2.2-1.6c0.8-0.4,1.7-0.6,2.7-0.6c1.1,0,2.2,0.3,3.1,0.9
		c0.9,0.6,1.7,1.3,2.3,2.2v-2.9h1.3v20.1h-1.4v-8.9C262.3,117.7,260.4,118.8,258.2,118.8z M258.6,117.6c0.8,0,1.5-0.2,2.2-0.5
		c0.7-0.3,1.3-0.8,1.8-1.3c0.5-0.5,0.9-1.2,1.3-1.8v-4.6c-0.1-0.5-0.3-1.1-0.6-1.5c-0.7-1-1.7-1.7-2.8-2.1c-0.5-0.2-1.1-0.3-1.7-0.3
		c-0.8,0-1.6,0.2-2.3,0.5c-0.7,0.4-1.3,0.8-1.8,1.4c-0.5,0.6-0.9,1.3-1.2,2c-0.6,1.7-0.5,3.6,0.3,5.3c0.4,0.9,1.1,1.7,1.9,2.2
		C256.6,117.4,257.6,117.6,258.6,117.6L258.6,117.6z"/>
	<path d="M269.3,112.5v-8.2h1.4v8c-0.1,1.4,0.2,2.7,0.9,3.9c0.6,0.9,1.6,1.4,2.7,1.3c0.8,0,1.6-0.2,2.3-0.5c0.8-0.4,1.4-0.9,2-1.5
		c0.6-0.7,1-1.4,1.3-2.3v-9h1.4v12.4c0,0.2,0,0.4,0.1,0.5c0.1,0.1,0.3,0.2,0.4,0.2v1.1h-0.4c-0.1,0-0.2,0-0.3,0
		c-0.3,0-0.6-0.2-0.8-0.4c-0.2-0.2-0.3-0.5-0.3-0.8v-2.1c-0.6,1.1-1.5,2-2.6,2.7c-1.1,0.7-2.3,1-3.5,1c-1.3,0.1-2.6-0.5-3.4-1.6
		C269.6,115.8,269.2,114.2,269.3,112.5z"/>
	<path d="M284.4,114.5c0-0.8,0.3-1.6,0.8-2.2c0.6-0.7,1.3-1.2,2.1-1.5c1-0.4,2-0.5,3.1-0.5c0.8,0,1.5,0.1,2.3,0.2
		c0.7,0.1,1.4,0.3,2.1,0.5v-1.3c0.1-1.2-0.4-2.3-1.1-3.1c-0.8-0.8-2-1.2-3.1-1.2c-0.8,0-1.5,0.2-2.2,0.4c-0.8,0.3-1.6,0.8-2.4,1.3
		l-0.6-1c0.8-0.6,1.7-1.1,2.7-1.4c0.8-0.3,1.7-0.5,2.6-0.5c1.5-0.1,2.9,0.5,4,1.5c1,1.1,1.6,2.6,1.5,4.1v7c0,0.2,0,0.4,0.1,0.5
		c0.1,0.1,0.3,0.2,0.5,0.2v1.1h-0.4H296c-0.3,0-0.6-0.2-0.8-0.4c-0.2-0.2-0.3-0.5-0.3-0.8v-1c-0.7,0.8-1.6,1.5-2.5,1.9
		c-1,0.5-2.1,0.7-3.3,0.7c-0.8,0-1.7-0.2-2.4-0.6c-0.7-0.4-1.3-0.9-1.7-1.6C284.5,116,284.3,115.2,284.4,114.5z M294.2,115.6
		c0.2-0.2,0.3-0.4,0.4-0.7c0.1-0.2,0.1-0.4,0.1-0.6V112c-0.7-0.3-1.3-0.5-2-0.6c-0.7-0.1-1.5-0.2-2.2-0.2c-1.2-0.1-2.4,0.2-3.5,0.9
		c-0.8,0.5-1.3,1.3-1.3,2.3c0,0.6,0.2,1.2,0.5,1.7c0.3,0.5,0.8,0.9,1.3,1.2c0.6,0.3,1.3,0.5,1.9,0.5c1,0,1.9-0.2,2.8-0.6
		C293,116.8,293.7,116.3,294.2,115.6L294.2,115.6z"/>
	<path d="M300.4,98.5h1.4v17.3c-0.1,0.5,0.1,1,0.4,1.4c0.3,0.3,0.7,0.4,1.1,0.4c0.3,0,0.6,0,0.9-0.1c0.3,0,0.6-0.1,0.8-0.2l0.3,1.1
		c-0.4,0.1-0.8,0.2-1.1,0.3c-0.4,0.1-0.8,0.1-1.2,0.1c-0.7,0-1.4-0.2-1.9-0.7c-0.5-0.5-0.7-1.2-0.7-1.9V98.5z"/>
	<path d="M307.4,101.1v-2.5h1.4v2.5H307.4z M307.4,118.6v-14.2h1.4v14.3L307.4,118.6z"/>
	<path d="M319.4,118c-0.2,0.1-0.4,0.2-0.5,0.3c-0.8,0.4-1.6,0.6-2.4,0.6c-0.5,0-0.9-0.1-1.4-0.3c-0.4-0.2-0.8-0.5-1-0.9
		c-0.3-0.4-0.4-0.9-0.4-1.4v-10.8h-2v-1.1h2v-4.9h1.4v4.9h3.3v1.1H315v10.5c0,0.5,0.2,0.9,0.6,1.2c0.3,0.3,0.8,0.4,1.2,0.4
		c0.5,0,1-0.1,1.5-0.3c0.3-0.1,0.5-0.2,0.7-0.4L319.4,118z"/>
	<path d="M322.8,123.4c0.3,0,0.6,0,0.8,0c0.2,0,0.3,0,0.5-0.1c0.2-0.1,0.4-0.2,0.5-0.4c0.3-0.4,0.5-0.9,0.7-1.3
		c0.3-0.7,0.7-1.6,1.2-2.9l-6.4-14.2h1.5l5.7,12.8l5.2-12.8h1.4l-7.8,18.7c-0.1,0.3-0.3,0.5-0.5,0.8c-0.2,0.2-0.4,0.4-0.7,0.6
		c-0.3,0.1-0.7,0.2-1,0.2h-0.5c-0.2,0-0.4,0-0.6,0L322.8,123.4z"/>
	<path d="M334.9,120.8l0.4-2.2h-0.5v-2.4h1.4v2.4l-0.6,2.2H334.9z"/>
	<path d="M356.2,118.7c-1.3,0-2.5-0.3-3.6-0.9c-1.1-0.6-2.1-1.3-2.9-2.3c-0.8-0.9-1.5-2-1.9-3.2c-0.4-1.2-0.7-2.4-0.7-3.6
		c0-2.5,0.9-4.9,2.5-6.8c0.8-0.9,1.8-1.7,2.9-2.2c1.1-0.5,2.3-0.8,3.6-0.8c1.7-0.1,3.3,0.3,4.7,1.2c1.2,0.8,2.1,1.8,2.7,3.1
		l-1.1,0.7c-0.6-1.2-1.5-2.2-2.6-2.8c-1.1-0.6-2.4-0.9-3.7-0.9c-1.1,0-2.2,0.2-3.1,0.7c-0.9,0.5-1.7,1.1-2.4,1.9
		c-0.7,0.8-1.2,1.8-1.5,2.8c-0.3,1-0.5,2.1-0.5,3.1c0,1.1,0.2,2.2,0.6,3.3c0.4,1,1,1.9,1.7,2.7c0.7,0.8,1.5,1.4,2.5,1.9
		c0.9,0.5,2,0.7,3,0.7c1.2,0,2.5-0.3,3.6-0.9c1.3-0.7,2.3-1.7,3.2-2.9v1.6C361.4,117.3,358.9,118.6,356.2,118.7z M362.7,110.2h-4.4
		v-1.1h5.6v9.5h-1.2L362.7,110.2z"/>
	<path d="M373.6,118.8c-1,0-1.9-0.2-2.8-0.6c-0.8-0.4-1.6-0.9-2.2-1.6c-2.7-2.9-2.7-7.4,0-10.4c0.6-0.7,1.4-1.2,2.2-1.6
		c0.9-0.4,1.8-0.6,2.8-0.6c0.9,0,1.9,0.2,2.7,0.6c0.8,0.4,1.6,0.9,2.3,1.6c0.6,0.7,1.1,1.5,1.5,2.4c0.7,1.8,0.7,3.8,0,5.6
		c-0.3,0.9-0.8,1.7-1.5,2.4C377.3,118.1,375.5,118.9,373.6,118.8L373.6,118.8z M368,111.5c0,1,0.3,2.1,0.8,3c0.5,0.9,1.2,1.6,2,2.2
		c1.7,1.1,3.9,1.1,5.6,0c0.8-0.6,1.5-1.3,2-2.2c0.5-0.9,0.8-2,0.8-3.1c0-1-0.3-2.1-0.8-3c-0.5-0.9-1.2-1.7-2-2.2
		c-0.8-0.5-1.8-0.8-2.8-0.8c-1,0-2,0.3-2.8,0.8C369,107.4,368,109.4,368,111.5L368,111.5z"/>
	<path d="M389.8,118.8c-1,0-1.9-0.2-2.8-0.6c-0.8-0.4-1.6-0.9-2.2-1.6c-2.7-2.9-2.7-7.4,0-10.4c0.6-0.7,1.4-1.2,2.2-1.6
		c0.9-0.4,1.8-0.6,2.8-0.6c0.9,0,1.9,0.2,2.7,0.6c0.8,0.4,1.6,0.9,2.2,1.6c0.6,0.7,1.1,1.5,1.5,2.4c0.7,1.8,0.7,3.8,0,5.6
		c-0.3,0.9-0.8,1.7-1.5,2.4C393.5,118.1,391.7,118.9,389.8,118.8L389.8,118.8z M384.2,111.5c0,1,0.3,2.1,0.8,3
		c0.5,0.9,1.2,1.6,2,2.2c1.7,1.1,3.9,1.1,5.6,0c0.8-0.6,1.5-1.3,2-2.2c0.5-0.9,0.8-2,0.8-3.1c0-1-0.3-2.1-0.8-3
		c-0.5-0.9-1.2-1.7-2-2.2c-0.8-0.5-1.8-0.8-2.8-0.8c-1,0-2,0.3-2.8,0.8C385.3,107.4,384.2,109.4,384.2,111.5L384.2,111.5z"/>
	<path d="M399.1,111.5c0-1.3,0.3-2.5,0.9-3.7c0.5-1.1,1.3-2,2.3-2.7c1-0.7,2.2-1,3.4-1c1.2,0,2.3,0.3,3.3,1c0.9,0.6,1.7,1.4,2.3,2.4
		v-8.9h1.4v18.2c0,0.2,0,0.4,0.1,0.5c0.1,0.1,0.3,0.2,0.4,0.2v1.1c-0.2,0-0.4,0-0.7,0c-0.3-0.1-0.6-0.2-0.8-0.5
		c-0.2-0.2-0.3-0.5-0.3-0.8v-1.6c-0.6,0.9-1.4,1.7-2.4,2.3c-0.9,0.5-1.9,0.8-3,0.9c-0.9,0-1.9-0.2-2.7-0.6c-0.8-0.4-1.6-1-2.2-1.6
		c-0.6-0.7-1.1-1.5-1.4-2.4C399.3,113.4,399.1,112.4,399.1,111.5z M411.2,113.8v-4.7c-0.3-0.7-0.7-1.4-1.2-1.9
		c-0.6-0.6-1.2-1-1.9-1.4c-0.7-0.3-1.4-0.5-2.1-0.5c-0.8,0-1.5,0.2-2.2,0.5c-0.7,0.3-1.3,0.8-1.7,1.4c-0.5,0.6-0.9,1.3-1.1,2
		c-0.3,0.7-0.4,1.5-0.4,2.3c0,0.8,0.1,1.6,0.4,2.3c0.3,0.7,0.7,1.4,1.2,2c0.5,0.6,1.1,1,1.8,1.3c0.7,0.3,1.5,0.5,2.2,0.5
		c0.5,0,1.1-0.1,1.6-0.3c0.6-0.2,1.1-0.5,1.6-0.8c0.5-0.3,0.9-0.7,1.3-1.2C411,114.9,411.2,114.3,411.2,113.8L411.2,113.8z"/>
	<path d="M428.5,118.8c-1.1,0-2.1-0.2-3.1-0.6c-1-0.4-1.8-1-2.5-1.8l0.6-1c0.7,0.7,1.5,1.2,2.4,1.6c0.8,0.3,1.7,0.5,2.6,0.5
		c1.1,0.1,2.1-0.2,3-0.8c0.7-0.5,1.2-1.3,1.1-2.1c0-0.5-0.2-1.1-0.5-1.4c-0.4-0.4-1-0.7-1.5-0.8c-0.7-0.2-1.5-0.4-2.4-0.7
		c-0.8-0.2-1.7-0.5-2.5-0.8c-0.6-0.2-1.1-0.6-1.5-1.1c-0.4-0.5-0.5-1.1-0.5-1.8c0-0.8,0.2-1.6,0.7-2.3c0.5-0.6,1.1-1.1,1.9-1.4
		c0.8-0.3,1.7-0.5,2.6-0.4c1,0,2,0.2,2.9,0.5c0.8,0.3,1.4,0.8,1.9,1.5l-0.7,0.9c-0.5-0.6-1.1-1-1.8-1.3c-0.8-0.3-1.6-0.4-2.4-0.4
		c-0.6,0-1.3,0.1-1.9,0.3c-0.5,0.2-1,0.5-1.4,0.9c-0.4,0.5-0.6,1.1-0.5,1.6c0,0.5,0.1,0.9,0.4,1.3c0.3,0.4,0.7,0.6,1.2,0.8
		c0.5,0.2,1.2,0.4,2,0.6c1,0.2,1.9,0.5,2.9,0.8c0.7,0.2,1.3,0.6,1.9,1.1c0.5,0.6,0.7,1.3,0.7,2c0,1.2-0.5,2.3-1.5,3.1
		C431.3,118.5,429.9,118.9,428.5,118.8z"/>
	<path d="M443.2,118.8c-1,0-1.9-0.2-2.8-0.6c-0.8-0.4-1.6-0.9-2.2-1.6c-1.3-1.4-2-3.3-2-5.2c0-1.3,0.3-2.5,0.9-3.7
		c0.6-1.1,1.5-2,2.5-2.6c1.1-0.7,2.3-1,3.6-1c1.3,0,2.5,0.3,3.6,1c2.1,1.4,3.4,3.7,3.4,6.3v0.3c0,0.1,0,0.2,0,0.3h-12.5
		c0.1,1,0.4,2,0.9,2.9c0.5,0.8,1.2,1.5,2,2.1c0.8,0.5,1.8,0.8,2.7,0.8c1,0,2-0.3,2.8-0.8c0.8-0.5,1.5-1.2,1.8-2l1.2,0.3
		c-0.3,0.7-0.7,1.3-1.3,1.8c-0.6,0.5-1.3,1-2.1,1.2C444.9,118.7,444,118.8,443.2,118.8z M437.5,110.9h11.3c0-1.1-0.4-2.1-0.9-3
		c-0.5-0.8-1.2-1.5-2-2c-0.8-0.5-1.8-0.7-2.8-0.7c-1,0-1.9,0.2-2.7,0.7c-0.8,0.5-1.5,1.2-2,2C437.9,108.9,437.6,109.9,437.5,110.9
		L437.5,110.9z"/>
	<path d="M459.8,105.5c-1.2,0-2.4,0.4-3.4,1.1c-1,0.8-1.7,1.8-2,3v8.9h-1.4v-14.3h1.3v3.5c0.5-1,1.2-1.8,2-2.5
		c0.7-0.6,1.6-1,2.6-1.1h0.5h0.4L459.8,105.5z"/>
	<path d="M466.8,118.6l-6-14.2h1.5l5.2,12.8l5.3-12.8h1.4l-5.9,14.2H466.8z"/>
	<path d="M476.9,101.1v-2.5h1.4v2.5H476.9z M476.9,118.6v-14.2h1.4v14.3L476.9,118.6z"/>
	<path d="M488.7,118.8c-1,0-1.9-0.2-2.8-0.6c-0.8-0.4-1.6-0.9-2.3-1.6c-0.6-0.7-1.1-1.5-1.5-2.4c-0.4-0.9-0.5-1.9-0.5-2.9
		c0-1.3,0.3-2.6,0.9-3.7c0.6-1.1,1.5-2,2.5-2.6c1.1-0.7,2.3-1,3.6-1c1.2,0,2.4,0.3,3.4,0.9c1,0.6,1.7,1.4,2.2,2.4l-1.3,0.4
		c-0.4-0.8-1-1.4-1.8-1.9c-0.8-0.4-1.7-0.7-2.6-0.7c-1,0-2,0.3-2.8,0.8c-0.8,0.5-1.5,1.3-2,2.2c-0.5,1-0.8,2-0.8,3.1
		c0,1.1,0.2,2.2,0.8,3.1c0.5,0.9,1.2,1.7,2,2.3c0.8,0.6,1.8,0.8,2.8,0.8c0.7,0,1.3-0.1,1.9-0.4c0.6-0.2,1.2-0.6,1.6-1
		c0.4-0.3,0.7-0.8,0.9-1.3l1.3,0.4c-0.3,0.7-0.7,1.3-1.2,1.8c-0.6,0.5-1.3,0.9-2,1.2C490.4,118.7,489.5,118.8,488.7,118.8z"/>
	<path d="M503.5,118.8c-1,0-1.9-0.2-2.8-0.6c-0.8-0.4-1.6-0.9-2.2-1.6c-1.3-1.4-2-3.3-2-5.2c0-1.3,0.3-2.5,0.9-3.7
		c0.6-1.1,1.5-2,2.5-2.6c1.1-0.7,2.3-1,3.6-1c1.3,0,2.5,0.3,3.6,1c1,0.7,1.9,1.6,2.5,2.7c0.6,1.1,0.9,2.4,0.9,3.6v0.3
		c0,0.1,0,0.2,0,0.3h-12.5c0.1,1,0.4,2,0.9,2.9c0.5,0.8,1.2,1.5,2,2.1c0.8,0.5,1.8,0.8,2.7,0.8c1,0,1.9-0.3,2.8-0.8
		c0.8-0.4,1.5-1.1,1.8-2l1.2,0.3c-0.3,0.7-0.7,1.3-1.3,1.8c-0.6,0.5-1.3,1-2.1,1.2C505.2,118.7,504.3,118.8,503.5,118.8z
		 M497.8,110.9h11.3c0-1.1-0.4-2.1-0.9-3c-0.5-0.8-1.2-1.5-2-2c-0.8-0.5-1.8-0.7-2.8-0.7c-1,0-1.9,0.2-2.7,0.7c-0.8,0.5-1.5,1.2-2,2
		C498.1,108.9,497.8,109.9,497.8,110.9z"/>
	<path d="M517.9,118.8c-1.1,0-2.1-0.2-3.2-0.6c-1-0.4-1.8-1-2.5-1.8l0.6-1c0.7,0.7,1.5,1.2,2.4,1.6c0.8,0.3,1.7,0.5,2.6,0.5
		c1.1,0.1,2.1-0.2,3-0.8c0.7-0.5,1.2-1.3,1.1-2.1c0-0.5-0.2-1-0.5-1.4c-0.4-0.4-1-0.7-1.5-0.8c-0.7-0.2-1.5-0.4-2.4-0.7
		c-0.8-0.2-1.7-0.5-2.5-0.8c-0.6-0.2-1.1-0.6-1.5-1.1c-0.4-0.5-0.5-1.1-0.5-1.8c0-0.8,0.2-1.6,0.7-2.3c0.5-0.6,1.1-1.1,1.9-1.4
		c0.8-0.3,1.7-0.5,2.7-0.4c1,0,2,0.2,2.9,0.5c0.8,0.3,1.4,0.8,1.9,1.5l-0.7,0.9c-0.5-0.6-1.1-1-1.8-1.3c-0.8-0.3-1.6-0.4-2.4-0.4
		c-0.6,0-1.3,0.1-1.9,0.3c-0.5,0.2-1,0.5-1.4,0.9c-0.4,0.5-0.6,1.1-0.5,1.6c0,0.5,0.1,0.9,0.4,1.3c0.3,0.4,0.7,0.6,1.2,0.8
		c0.5,0.2,1.2,0.4,2,0.6c1,0.2,1.9,0.5,2.9,0.8c0.7,0.2,1.3,0.6,1.9,1.1c0.5,0.6,0.7,1.3,0.7,2c0,1.2-0.5,2.3-1.5,3.1
		C520.7,118.5,519.3,118.9,517.9,118.8z"/>
	<g>
		<path class="st2" d="M510.6,79.1V34.3h19.8c2.1,0,4,0.4,5.7,1.3c1.7,0.8,3.3,2,4.5,3.4c1.3,1.4,2.3,3,3,4.8s1,3.6,1,5.4
			c0,1.9-0.3,3.7-1,5.5c-0.7,1.7-1.6,3.3-2.8,4.6c-1.2,1.3-2.7,2.3-4.3,3l10.2,16.9h-9.6l-9.2-15h-8.7v15H510.6z M519.3,56.5h10.9
			c1.1,0,2.1-0.3,2.9-1c0.8-0.7,1.5-1.5,2-2.6c0.5-1.1,0.8-2.3,0.8-3.7c0-1.4-0.3-2.7-0.9-3.8c-0.6-1.1-1.3-1.9-2.2-2.6
			s-1.9-0.9-2.9-0.9h-10.5V56.5z"/>
		<path class="st2" d="M592.5,46.4h8l-13.8,32.8h-7.1l-5.6-14.1l-5.4,14.1h-7.1l-13.8-32.8h8l9.9,24.8l3.9-10.7l-5.7-14h7l3.4,10
			l3.5-10h7l-5.7,14l3.9,10.7L592.5,46.4z"/>
		<path class="st2" d="M601.4,69.5c0-2.1,0.6-4,1.8-5.6c1.2-1.6,2.9-2.8,5-3.7c2.1-0.9,4.6-1.3,7.4-1.3c1.4,0,2.8,0.1,4.2,0.3
			c1.4,0.2,2.7,0.5,3.7,1v-1.8c0-2.1-0.6-3.7-1.9-4.8c-1.2-1.1-3.1-1.7-5.5-1.7c-1.8,0-3.5,0.3-5.2,0.9c-1.6,0.6-3.4,1.6-5.2,2.8
			l-2.7-5.6c2.2-1.4,4.4-2.5,6.7-3.2c2.3-0.7,4.7-1.1,7.2-1.1c4.7,0,8.4,1.2,11,3.5c2.6,2.3,3.9,5.6,3.9,10v10.4
			c0,0.9,0.2,1.5,0.5,1.9c0.3,0.4,0.8,0.6,1.5,0.7v6.9c-0.8,0.1-1.4,0.2-2.1,0.3c-0.6,0.1-1.1,0.1-1.5,0.1c-1.7,0-3-0.4-3.8-1.1
			c-0.9-0.8-1.4-1.7-1.6-2.8l-0.2-1.7c-1.4,1.9-3.2,3.3-5.4,4.3s-4.3,1.5-6.6,1.5c-2.2,0-4.2-0.4-5.9-1.3c-1.7-0.9-3.1-2.1-4.1-3.7
			C601.9,73.2,601.4,71.4,601.4,69.5z M621.9,71.1c0.5-0.5,0.8-1,1.1-1.5c0.3-0.5,0.4-0.9,0.4-1.4V65c-1-0.4-2.1-0.7-3.3-1
			c-1.2-0.2-2.3-0.3-3.3-0.3c-2.2,0-4,0.5-5.4,1.4c-1.4,0.9-2.1,2.1-2.1,3.7c0,0.8,0.2,1.6,0.7,2.3c0.5,0.7,1.1,1.3,2,1.8
			c0.9,0.5,1.9,0.7,3.2,0.7c1.3,0,2.5-0.2,3.7-0.7C620.2,72.4,621.2,71.8,621.9,71.1z"/>
		<path class="st2" d="M670.6,79.1h-8.5V60.8c0-2.6-0.5-4.5-1.4-5.7c-0.9-1.2-2.2-1.8-3.9-1.8c-1.1,0-2.3,0.3-3.4,0.9
			c-1.2,0.6-2.2,1.4-3.1,2.4c-0.9,1-1.6,2.2-2,3.5v19.1h-8.5V46.4h7.6v6.1c0.8-1.4,1.9-2.6,3.2-3.6c1.3-1,2.8-1.7,4.5-2.2
			c1.7-0.5,3.5-0.8,5.4-0.8c2.1,0,3.8,0.4,5.1,1.1c1.3,0.7,2.3,1.7,3,2.9c0.7,1.2,1.2,2.6,1.5,4.2c0.3,1.5,0.4,3.1,0.4,4.7V79.1z"/>
		<path class="st2" d="M676,62.8c0-3.2,0.6-6,1.9-8.6c1.3-2.6,3-4.6,5.2-6.1c2.2-1.5,4.8-2.2,7.6-2.2c2.4,0,4.6,0.6,6.6,1.8
			c2,1.2,3.5,2.7,4.6,4.6V33h8.5v36.6c0,0.9,0.1,1.5,0.4,1.9c0.3,0.4,0.8,0.6,1.5,0.7v6.9c-1.5,0.3-2.7,0.4-3.6,0.4
			c-1.5,0-2.8-0.4-3.8-1.1s-1.5-1.7-1.7-3l-0.1-2.1c-1.2,2.1-2.9,3.6-5,4.7c-2.1,1.1-4.3,1.6-6.5,1.6s-4.4-0.4-6.3-1.3
			c-1.9-0.9-3.6-2.1-5-3.6c-1.4-1.5-2.5-3.3-3.3-5.4C676.4,67.4,676,65.1,676,62.8z M701.9,67.1v-7.7c-0.4-1.2-1.1-2.3-2-3.2
			c-0.9-0.9-2-1.7-3.1-2.3c-1.1-0.6-2.3-0.8-3.4-0.8c-1.3,0-2.5,0.3-3.5,0.8c-1.1,0.5-2,1.3-2.7,2.2c-0.8,0.9-1.4,2-1.8,3.2
			c-0.4,1.2-0.6,2.5-0.6,3.8c0,1.3,0.2,2.6,0.7,3.7c0.4,1.2,1.1,2.2,1.9,3.1c0.8,0.9,1.8,1.5,2.9,2c1.1,0.5,2.3,0.7,3.6,0.7
			c0.8,0,1.6-0.1,2.4-0.4c0.8-0.3,1.6-0.6,2.3-1.1c0.7-0.5,1.4-1.1,2-1.7C701.2,68.6,701.6,67.9,701.9,67.1z"/>
		<path class="st2" d="M716.5,69.5c0-2.1,0.6-4,1.8-5.6c1.2-1.6,2.9-2.8,5-3.7c2.1-0.9,4.6-1.3,7.4-1.3c1.4,0,2.8,0.1,4.2,0.3
			c1.4,0.2,2.7,0.5,3.7,1v-1.8c0-2.1-0.6-3.7-1.9-4.8c-1.2-1.1-3.1-1.7-5.5-1.7c-1.8,0-3.5,0.3-5.2,0.9c-1.6,0.6-3.4,1.6-5.2,2.8
			l-2.7-5.6c2.2-1.4,4.4-2.5,6.7-3.2c2.3-0.7,4.7-1.1,7.2-1.1c4.7,0,8.4,1.2,11,3.5c2.6,2.3,3.9,5.6,3.9,10v10.4
			c0,0.9,0.2,1.5,0.5,1.9c0.3,0.4,0.8,0.6,1.5,0.7v6.9c-0.8,0.1-1.4,0.2-2.1,0.3c-0.6,0.1-1.1,0.1-1.5,0.1c-1.7,0-3-0.4-3.8-1.1
			c-0.9-0.8-1.4-1.7-1.6-2.8l-0.2-1.7c-1.4,1.9-3.2,3.3-5.4,4.3c-2.1,1-4.3,1.5-6.6,1.5c-2.2,0-4.2-0.4-5.9-1.3
			c-1.7-0.9-3.1-2.1-4.1-3.7C717,73.2,716.5,71.4,716.5,69.5z M737,71.1c0.5-0.5,0.8-1,1.1-1.5c0.3-0.5,0.4-0.9,0.4-1.4V65
			c-1-0.4-2.1-0.7-3.3-1c-1.2-0.2-2.3-0.3-3.3-0.3c-2.2,0-4,0.5-5.4,1.4c-1.4,0.9-2.1,2.1-2.1,3.7c0,0.8,0.2,1.6,0.7,2.3
			c0.5,0.7,1.1,1.3,2,1.8c0.9,0.5,1.9,0.7,3.2,0.7c1.3,0,2.5-0.2,3.7-0.7C735.3,72.4,736.3,71.8,737,71.1z"/>
	</g>
</g>
</svg>
