<?xml version="1.0" encoding="utf-8"?>
<!-- Generator: Adobe Illustrator 23.0.3, SVG Export Plug-In . SVG Version: 6.00 Build 0)  -->
<svg version="1.1" id="Layer_1" xmlns="http://www.w3.org/2000/svg" xmlns:xlink="http://www.w3.org/1999/xlink" x="0px" y="0px"
	 viewBox="0 0 504 504" style="enable-background:new 0 0 504 504;" xml:space="preserve">
<style type="text/css">
	.st0{fill:#D11E1E;}
	.st1{fill:#930000;}
</style>
<g>
	<g>
		<path class="st0" d="M503.8,298.9c-0.7,14.2-1.1,28.3-2.1,42.5c-1.5,19.9-12.1,33.6-30.5,41c-4.2,1.7-9,2.3-13.5,2.7
			c-15.4,1.2-30.5,0.6-45.1-5.7c-9-3.9-18.7-6.3-28-9.6c-5.8-2.1-11.3-5.1-17.3-6.6c-20.9-5.1-41.8-10.4-62.9-14.3
			c-13.8-2.5-28-3.3-42-3.6c-21.2-0.4-42.4,0-63.6,0.5c-17,0.4-33.5,4.2-49.9,8.1c-12.8,3.1-25.9,5.4-38.8,8.1
			c-1.5,0.3-3.1,0.6-4.6,1.2c-20.5,8.4-41.1,16.6-59.1,29.9c-2.5,1.9-5,3.8-7.5,5.7c-5.5,4.4-11.4,4.9-17.7,2.1
			c-7.1-3.2-12.7-8.5-18.3-13.8c-0.6-0.5-0.8-1.7-0.9-2.5c-0.7-25.6-1.4-51.2-2-76.8c0-1.1,0.3-2.4,0.9-3.2
			c4.3-5.6,8.2-11.5,13.1-16.5c10.3-10.4,20.9-20.5,31.8-30.1c8.4-7.4,17.5-14,26.3-21c4.2-3.3,8.4-6.6,12.6-9.9
			c1.2-1,2.4-2,3.8-2.8c11-6.8,21.9-13.7,33-20.2c10.2-6,20.6-11.6,31-17.2c5.4-2.9,11.1-5.2,16.2-8.8c4.9-3.5,10.7-5.6,16.1-8.3
			c2.4-1.2,4.7-2.7,7.2-3.8c2.5-1.1,5.1-2,7.6-2.9c2.2-0.8,4.7-1,6.5-2.2c6.1-4.1,13.1-5.5,19.7-8c7.4-2.8,14.7-6.1,21.7-9.8
			c21-11.1,41-24.6,63.9-31.7c11.1-3.4,22.7-5.1,34.1-7.4c4.5-0.9,9.2-1.1,13.7-2c10.9-2.1,21.3,0.7,31.8,2.9
			c8.1,1.7,16.1,3.8,23.9,6.6c23.3,8.6,44.1,21.1,60.3,40.1c14.1,16.6,22.1,36,23.3,58c1.5,28.1,3.1,56.2,4.7,84.3
			c0.1,1.7,0,3.4,0,5C503.5,298.9,503.7,298.9,503.8,298.9z M493.5,280.3c-0.5-0.2-0.9-0.3-1.4-0.5c-1.4,1.7-2.8,3.4-4.2,5.1
			c-4.1,5-7.8,10.5-12.4,15c-5.9,5.8-13.3,8.7-21.8,8.2c-4.6-0.3-9.2-0.3-13.8-0.8c-9.3-1-18.4-2.9-27-7c-3.3-1.6-6.6-3.1-10.1-4.3
			c-6.8-2.2-13.6-4.1-20.5-6.1c-18-5.1-35.9-10.3-54.5-12.7c-33-4.1-66.1-5.6-99.4-5c-14.8,0.2-29.6,1.5-44.1,4.6
			c-25.5,5.6-49.1,16.2-72.7,27c-1.2,0.6-2.5,1.1-3.8,1.5c-3.5,1.2-7.2,2.3-10.6,3.7c-18.9,7.9-37.7,16-56.6,23.7
			c-5,2-7.2,5-7.2,10.1c0,7.5,0.1,14.9,0.4,22.4c0.2,6.2,0.7,12.4,1.4,18.5c0.2,1.3,1.6,3,2.9,3.5c1.1,0.4,3-0.2,4.2-1
			c2.5-1.7,4.7-3.9,7.2-5.5c7.4-4.8,14.7-9.6,23-12.8c6.2-2.4,11.8-6.2,18.3-8.1c9.8-2.8,19.5-6.5,29.3-9.2
			c11.1-3.1,22.3-5.9,33.6-8.1c8-1.6,16.2-1.9,24.4-2.9c9.6-1.1,19.1-3,28.7-3.3c23.7-0.7,47.5-1,71.2-0.7
			c15.7,0.2,31.5,1.8,46.7,6.2c17.6,5.1,34.9,11.3,52.4,16.8c14.3,4.5,28.8,8.5,43.1,12.9c11,3.4,22.1,5,33.5,4.3
			c8.5-0.6,16.6-2.4,23.9-7c5.5-3.4,9.4-8,10.9-14.4c1.3-5.6,2.7-11.2,4.4-16.7c2-6.5,3.1-13.1,2.8-19.8c-0.3-8.4-0.5-16.8-0.9-25.2
			C494.7,288.3,494,284.3,493.5,280.3z M273.9,256.7c0.3-0.5,0.6-0.9,0.8-1.4c-1.8-1.6-3.3-3.6-5.3-4.6
			c-12.1-6.2-24.4-12.2-36.6-18.3c-4.1-2.1-8.3-4.1-11.9-6.9c-10.9-8.5-13.4-23.3-6.3-35.1c0.8-1.3,1.6-2.5,2.1-3.9
			c1.6-5.2,5.3-8.7,9.3-12c3.1-2.6,6.3-5.2,9.5-7.8c1.2-1,2.4-2.1,3.4-3.3c2.1-2.5,1.4-5-1.8-5.1c-2.8-0.1-5.7,0.8-8.3,1.8
			c-3.5,1.3-6.7,3.3-10.2,4.8c-2.7,1.2-5.6,1.9-8.2,3.2c-13,6.3-26,12.8-39,19c-3.8,1.8-7.8,3.1-11.6,4.7c-2.2,0.9-4.4,2-6.5,3.2
			c-3.2,1.8-6.2,3.9-9.4,5.8c-6.5,3.8-13.1,7.4-19.8,11.1c-1.3,0.7-2.6,1.4-4,1.7c-2.6,0.5-4.6,1.5-4.4,4.3c0.2,2.9,2.9,2.7,4.9,2.7
			c12.4,0,24.8,0,37.2,0c9.3,0,15.4-4.7,19-13c0.8-1.9,1.5-4,2.5-5.8c2.5-4.5,4.9-9,7.8-13.3c3-4.5,7.5-5.2,12.6-3.9
			c2.8,0.8,4.5,2.4,4.1,5.4c-0.5,3.1-1.2,6.2-2.1,9.2c-4.4,15.7-0.4,27.2,13.1,36.4c3.9,2.7,8,5.3,12.3,6.9
			c13.2,4.7,26.6,9,39.9,13.3C269.1,256.4,271.6,256.4,273.9,256.7z M371.8,112.5c-8.4,0.8-16.7,1.3-25.1,2.3
			c-16.5,2-32.2,6.8-47.2,13.9c-2,1-5.2,1.4-4.4,4.3c0.9,3.2,4.1,2,6.3,1.5c5.1-1.3,10.1-2.8,15-4.6c19-6.9,38.7-9.4,58.8-7.7
			c12,1,19.1,8.5,20.8,20.5c1,6.6,2.7,13.1,4.8,19.4c2.6,7.5,10,6.5,13.6,1.4c3.9-5.6,7.8-11.2,12-16.5c1.9-2.3,4.6-4.4,7.3-5.6
			c5.5-2.2,6.3-3.9,2.8-8.6c-1-1.3-2.4-2.2-3.8-3.2c-1.6-1.1-3.2-2-4.9-2.8c-4.4-2.1-8.8-4.2-13.4-6c-3.2-1.3-6.7-1.7-9.9-2.9
			C394,113.8,383,112.9,371.8,112.5z M153.4,258.5c-12.5-1-22.5,5-32.2,11.6c-0.7,0.5-1.3,1.1-1.8,1.7c-2.1,2.4-2,4.1,0.4,6.2
			c3.2,2.8,6.9,4.2,11.1,2.8c6.5-2.3,12.9-4.9,19.4-7.3c3-1.1,6-2.5,9.1-3.2c5.7-1.2,11.6-1.8,17.3-3c1.5-0.3,2.8-1.8,4.2-2.8
			c-1.5-1.2-2.8-2.6-4.4-3.5c-1.1-0.6-2.6-0.7-4-0.8C166.1,259.5,159.7,259,153.4,258.5z"/>
		<path class="st1" d="M211,285.5c6.3,1,12.4,2,18.5,3c11.2,1.9,22.4,0.6,33.6,0.4c10.4-0.2,20.8-0.6,31.1,0.5
			c9.6,1,18.2,5.4,25.7,11.8c3.2,2.7,6.6,5.1,10,7.6c2.9,2.2,4.2,5.7,3,8.5c-1.1,2.6-4.1,4.2-7.7,3.4c-3.4-0.7-6.7-1.8-9.9-3.1
			c-10.8-4.3-21.2-9.9-33-11.2c-10.5-1.2-21.1-1.7-31.7-2.1c-15.1-0.6-30.2-1-45.4-1.4c-4.4-0.1-7-2.6-8.9-6.1
			c-1.5-2.9,1-7.7,5.1-9.2C204.5,286.5,207.8,286.2,211,285.5z"/>
		<path class="st1" d="M440,349.2c0,0.2,0,0.4,0,0.6c-0.2,4.2-2.7,8-5.4,8.4c-2.7,0.4-5.7-1.7-7.1-6.1
			c-4.2-13.9-12.7-24.9-22.4-35.2c-1.6-1.7-3-3.8-4.1-5.9c-1.3-2.7-0.3-4.7,2.7-4.8c2.2-0.1,4.7,0.3,6.5,1.3
			c2.4,1.3,4.5,3.4,6.5,5.3c8.6,8.3,15.6,17.8,20.8,28.6c1.2,2.4,1.9,5.1,2.8,7.6C440.3,349.1,440.2,349.2,440,349.2z"/>
		<path class="st1" d="M179.7,300.2c0.3,2.4-1.1,3.8-3.4,4.7c-4.9,1.9-9.7,3.9-14.6,5.8c-1.4,0.6-3,0.9-4.5,1.1
			c-2.4,0.2-4.9-0.6-5.3-3c-0.3-1.9,0.3-5.1,1.6-5.8c6.1-3.5,12.4-6.9,19.1-9.3C176.7,292.2,179.7,295.4,179.7,300.2z"/>
	</g>
</g>
</svg>
