<?xml version="1.0" encoding="utf-8"?>
<!-- Generator: Adobe Illustrator 23.0.3, SVG Export Plug-In . SVG Version: 6.00 Build 0)  -->
<svg version="1.1" id="Layer_1" xmlns="http://www.w3.org/2000/svg" xmlns:xlink="http://www.w3.org/1999/xlink" x="0px" y="0px"
	 viewBox="0 0 512 512" style="enable-background:new 0 0 512 512;" xml:space="preserve">
<style type="text/css">
	.st0{fill:#3797D3;}
	.st1{fill:#4881C2;}
	.st2{fill:#2F66A3;}
</style>
<g>
	<path class="st0" d="M422.1,278.6c9.8,0,19.1-0.8,28.1,0.2c15.8,1.8,27.9,10.3,33.9,25c6.2,15.2,1.9,30.3-9.8,40.4
		c-14.4,12.5-29.8,26.3-47.2,32.4c-35.5,12.4-67.2,29.6-94.1,55.5c-32.5,31.3-71.8,27.8-111.6,23c-23-2.7-37.8-19.7-54.5-32.5
		c-52.1-40.1-73.8-95.3-76-159.5c-0.4-13.1,8.5-20.4,19.1-23.9c17.9-5.8,36.2-11.4,54.7-14.1c71.8-10.3,143.5-9.6,214.6,5.9
		c2.5,0.5,4.9,1.3,7.3,2C416.5,242.6,419.3,246,422.1,278.6z M261.4,224.2c-42,4.6-78.4,7.8-114.6,13.1
		c-13.4,1.9-26.7,7.5-39.1,13.3c-10.4,4.9-10.4,13-0.4,19.1c7.4,4.5,15.9,8,24.3,10c78.7,18.1,157.8,17.2,236.9,3
		c11.4-2.1,22.9-5.9,33.4-11c13.8-6.7,13.7-15.1,0.4-22.5c-5.8-3.2-12.2-6.4-18.6-7.4C341.4,235.3,299,229.5,261.4,224.2z
		 M395.6,369.7c14.2-4.9,27-7.3,37.4-13.5c11.9-7.1,23.1-16.4,31.8-27.1c4-4.9,3.2-16.2,0.7-23.2c-3.1-8.6-11.9-12.3-21.7-11.6
		c-14.4,1-23,10.5-28.2,22.1C408.1,332.6,402.8,349.8,395.6,369.7z"/>
	<path class="st1" d="M96.8,348.8c-8.1,3.1-16.5,5.5-24.1,9.5c-11.8,6.2-24.2,12.2-34.3,20.6C23.8,391,23.6,405.6,38,417.7
		c10.4,8.8,22.7,16.1,35.4,21.1c46.7,18.5,96,24.5,145.7,26.8c69.7,3.1,138.9-0.3,206-21.8c15-4.8,30-11.7,42.9-20.5
		c21.8-14.9,21.7-30.7,2.3-48.4c-2-1.9-3.8-4-4.8-8.9c3.4,0.6,7.4,0.2,10.1,1.9c20.2,12.7,23.9,38.5,6.4,54.9
		C471,433,458,441.4,444.8,448.6c-45.8,24.8-91.5,50.5-143.8,59c-49.1,8-97.7,5.2-143.4-15.6c-37.4-17.1-73.6-36.7-110-55.7
		c-6.6-3.4-12.5-8.6-17.8-13.9c-13.7-13.8-14.5-32.1-1.4-46.4c16.5-18,38.9-25.8,61.4-33.1c2-0.6,4.8,1.2,7.2,1.9
		C96.9,346.1,96.9,347.4,96.8,348.8z"/>
	<path class="st2" d="M280.6,179.5c13-26.4,7.3-50.5-5.9-74.7c-23.3-42.7-18.9-67.6,18.5-104.4c-2.4,6.1-3.6,9.5-5,12.9
		c-12.1,28-11.7,55.2,3.9,82.2c6,10.4,11.2,22,13.1,33.6C308.5,150.2,294.2,164.9,280.6,179.5z"/>
	<path class="st2" d="M234.7,197.4c8.3-23.6-1.6-42.4-15.2-59.7c-19.5-25-16-49.9,4.4-74.5c0.3,1.3,1,2.4,0.7,3.3
		c-8.1,26.1-2.2,48.9,13.7,71C255.3,160.8,253.7,174.1,234.7,197.4z"/>
</g>
</svg>
