<?xml version="1.0" encoding="utf-8"?>
<!-- Generator: Adobe Illustrator 23.0.3, SVG Export Plug-In . SVG Version: 6.00 Build 0)  -->
<svg version="1.1" id="Layer_1" xmlns="http://www.w3.org/2000/svg" xmlns:xlink="http://www.w3.org/1999/xlink" x="0px" y="0px"
	 viewBox="0 0 345.5 345.5" style="enable-background:new 0 0 345.5 345.5;" xml:space="preserve">
<style type="text/css">
	.st0{fill:#FAE16E;}
	.st1{fill:#2CB79A;}
	.st2{fill:#1DD2A5;}
</style>
<g>
	<path class="st0" d="M345.5,345.5c-115.2,0-229.7,0-344.8,0c0-47.9,0-95.4,0-143.6c41.2,0,82.1,0,123.5,0c0.5-3.3,0.9-6,1.4-9.3
		c12,0,24,0,36.9,0c0.5,2.4,1.1,5.3,1.8,8.6c5.7,0,11.4,0,17.7,0c0.4-2.7,0.8-5.4,1.3-8.6c12,0,24.1,0,36.9,0
		c0.5,2.5,1.1,5.4,1.8,8.7c28.3,0,56.3,0,85.7,0c0-9.3,0.9-18.6-0.4-27.6c-0.6-3.8-5.3-9.1-8.9-9.9c-6.2-1.3-9.6,3.6-9.9,10.1
		c-0.1,2.5,0,5,0,8.1c-6.5,0-12.4,0-18.2,0c-6.3-25.5,17-43.4,36.8-36.4c12,4.2,19.6,14.3,19.9,27.7c0.2,9.2,0,18.4,0,28.3
		c6.6,0,12.2,0,18.6,0C345.5,249.7,345.5,297.2,345.5,345.5z M19.8,326c25.7,0,50.8,0,75.7,0c0-35.3,0-70,0-104.6
		c-25.6,0-50.4,0-75.7,0C19.8,256.3,19.8,290.8,19.8,326z M326.4,326.2c0-35.6,0-70,0-104.7c-25.6,0-50.6,0-75.7,0
		c0,35.3,0,69.9,0,104.7C276.2,326.2,301.1,326.2,326.4,326.2z M116.3,278.8c0,15.8,0,31.4,0,47.2c38.2,0,76.1,0,113.8,0
		c0-16.1,0-31.6,0-47.2C191.9,278.8,154.5,278.8,116.3,278.8z M115.9,258.7c38.6,0,76.5,0,114.1,0c0-13,0-25.2,0-37.3
		c-38.4,0-76,0-114.1,0C115.9,233.9,115.9,246,115.9,258.7z"/>
	<path class="st1" d="M250,124.5c-51.6,0-102.1,0-153.7,0c0-16.8-0.2-33.3,0.2-49.8c0.1-2.2,2.7-4.8,4.8-6.5
		c11.9-9.7,23.7-19.6,36-28.7c5.5-4.1,7.6-8.5,7.1-15.3c-0.6-7.6-0.1-15.3-0.1-23.7c19.1,0,37.8,0,57.7,0c0,8.4,0.4,17-0.1,25.5
		c-0.3,5.8,1.8,9.3,6.3,12.8c12.5,9.5,24.7,19.4,36.7,29.4c2.4,2,4.9,5.4,4.9,8.3C250.3,92.1,250,107.8,250,124.5z M230.1,105.2
		c0-6.6,0-12.4,0-18.1c-38.5,0-76.4,0-114.2,0c0,6.4,0,12,0,18.1C154.1,105.2,191.7,105.2,230.1,105.2z M163.5,19.3
		c0,4.6-0.5,8.5,0.1,12.1c1.3,8.6-2.2,14.3-9.2,19c-6.6,4.5-12.6,10-19.8,15.9c26.4,0,51,0,77.3,0c-9.1-7.3-16.6-13.7-24.5-19.6
		c-10-7.5-0.9-19-6.1-27.5C175.8,19.3,170.4,19.3,163.5,19.3z"/>
	<path class="st2" d="M28.7,67.5c6.9,0,12.6,0,19.2,0c0,13.1,0,26,0,38.5c22.5,10.3,32.4,26.6,28.4,45.3c-4,18.5-20,31.4-38.5,31.1
		c-18.1-0.4-33.6-13.6-37.1-31.7c-3.6-18.7,6.5-34.9,28-44.3C28.7,94.1,28.7,81.4,28.7,67.5z M38.3,124.8
		c-10.3,0.2-18.8,8.7-18.9,19c-0.1,10.7,8.8,19.5,19.5,19.4c10.7-0.2,19.3-9.3,18.9-20C57.4,133,48.6,124.7,38.3,124.8z"/>
	<path d="M75.2,251.2c-2.6-3.7-7.2-7.4-7.1-11c0.1-3.2,5.5-9.2,8-9c3.7,0.4,9.2,4.9,9.8,8.4c0.6,3.3-4,7.6-6.4,11.4
		C78.1,251.1,76.7,251.2,75.2,251.2z"/>
	<path d="M266.9,251.1c-2.4-3.8-6.8-7.7-6.5-11.3c0.2-3.2,6-8.9,8.5-8.5c3.7,0.6,8.9,5.4,9.3,8.9c0.4,3.3-4.4,7.3-6.9,11.1
		C269.8,251.2,268.3,251.1,266.9,251.1z"/>
	<path d="M155.3,242.6c-3.8,2.4-8,7-11.3,6.5c-3.5-0.6-8.1-5.9-8.5-9.7c-0.3-2.5,5.6-8.1,8.9-8.2c3.6-0.1,7.4,4.4,11.1,7
		C155.3,239.6,155.3,241.1,155.3,242.6z"/>
	<path d="M175.8,229.2c2.3,3.9,6.9,8.2,6.2,11.4c-0.7,3.5-6.1,7.9-9.9,8.3c-2.5,0.2-7.9-5.8-8-9.1c0-3.6,4.6-7.3,7.2-10.9
		C172.9,229.1,174.4,229.2,175.8,229.2z"/>
	<path d="M213,242.4c-3.8,2.4-7.9,7.1-11.2,6.6c-3.5-0.6-8.1-5.8-8.7-9.5c-0.3-2.5,5.5-8.1,8.7-8.3c3.6-0.2,7.4,4.3,11.2,6.8
		C213,239.5,213,240.9,213,242.4z"/>
</g>
</svg>
